<svg version="1.1" viewBox="0.0 0.0 800.0 600.0" fill="none" stroke="none" stroke-linecap="square" stroke-miterlimit="10" xmlns:xlink="http://www.w3.org/1999/xlink" xmlns="http://www.w3.org/2000/svg"><clipPath id="p.0"><path d="m0 0l800.0 0l0 600.0l-800.0 0l0 -600.0z" clip-rule="nonzero"/></clipPath><g clip-path="url(#p.0)"><path fill="#000000" fill-opacity="0.0" d="m0 0l800.0 0l0 600.0l-800.0 0z" fill-rule="evenodd"/><path fill="#d9d2e9" fill-opacity="0.3966" d="m397.68106 74.90772l359.7795 0l0 317.60632l-359.7795 0z" fill-rule="evenodd"/><path stroke="#000000" stroke-width="1.0" stroke-linejoin="round" stroke-linecap="butt" d="m397.68106 74.90772l359.7795 0l0 317.60632l-359.7795 0z" fill-rule="evenodd"/><path fill="#d9d2e9" fill-opacity="0.3966" d="m7.2047243 15.43832l359.77954 0l0 540.315l-359.77954 0z" fill-rule="evenodd"/><path stroke="#000000" stroke-width="1.0" stroke-linejoin="round" stroke-linecap="butt" d="m7.2047243 15.43832l359.77954 0l0 540.315l-359.77954 0z" fill-rule="evenodd"/><path fill="#f3f3f3" d="m142.12904 180.57262l0 0c0 -49.97049 6.4276276 -90.479576 14.356522 -90.479576l0 0c3.8075867 0 7.4592133 9.532646 10.151596 26.500854c2.6923676 16.968208 4.2049255 39.982048 4.2049255 63.97872l0 0c0 49.970505 -6.427643 90.4796 -14.356522 90.4796l0 0c-3.8075867 0 -7.4592285 -9.532654 -10.151596 -26.50087c-2.6923676 -16.968216 -4.2049255 -39.98204 -4.2049255 -63.97873z" fill-rule="evenodd"/><path stroke="#000000" stroke-width="1.0" stroke-linejoin="round" stroke-linecap="butt" d="m142.12904 180.57262l0 0c0 -49.97049 6.4276276 -90.479576 14.356522 -90.479576l0 0c3.8075867 0 7.4592133 9.532646 10.151596 26.500854c2.6923676 16.968208 4.2049255 39.982048 4.2049255 63.97872l0 0c0 49.970505 -6.427643 90.4796 -14.356522 90.4796l0 0c-3.8075867 0 -7.4592285 -9.532654 -10.151596 -26.50087c-2.6923676 -16.968216 -4.2049255 -39.98204 -4.2049255 -63.97873z" fill-rule="evenodd"/><path fill="#f3f3f3" d="m218.33392 132.49626l13.7256775 0l0 96.15271l-13.7256775 0z" fill-rule="evenodd"/><path stroke="#000000" stroke-width="1.0" stroke-linejoin="round" stroke-linecap="butt" d="m218.33392 132.49626l13.7256775 0l0 96.15271l-13.7256775 0z" fill-rule="evenodd"/><path fill="#000000" fill-opacity="0.0" d="m122.13952 292.55072l71.18998 0" fill-rule="evenodd"/><path stroke="#000000" stroke-width="1.0" stroke-linejoin="round" stroke-linecap="butt" d="m125.566605 292.55072l61.762894 0" fill-rule="evenodd"/><path fill="#000000" stroke="#000000" stroke-width="1.0" stroke-linecap="butt" d="m125.566605 292.55072l1.1245804 -1.1246033l-3.0897675 1.1246033l3.0897675 1.1245728z" fill-rule="evenodd"/><path fill="#000000" stroke="#000000" stroke-width="1.0" stroke-linecap="butt" d="m187.3295 294.20245l4.538101 -1.6517334l-4.538101 -1.6517334z" fill-rule="evenodd"/><path fill="#000000" fill-opacity="0.0" d="m194.59756 131.85086l0 -64.55359" fill-rule="evenodd"/><path stroke="#000000" stroke-width="1.0" stroke-linejoin="round" stroke-linecap="butt" d="m194.59756 128.42378l0 -55.12651" fill-rule="evenodd"/><path fill="#000000" stroke="#000000" stroke-width="1.0" stroke-linecap="butt" d="m194.59756 128.42378l-1.124588 -1.124588l1.124588 3.0897675l1.124588 -3.0897675z" fill-rule="evenodd"/><path fill="#000000" stroke="#000000" stroke-width="1.0" stroke-linecap="butt" d="m196.2493 73.29727l-1.6517334 -4.538101l-1.6517334 4.538101z" fill-rule="evenodd"/><path fill="#000000" fill-opacity="0.0" d="m189.60178 76.804115l71.18997 0l0 45.5399l-71.18997 0z" fill-rule="evenodd"/><path fill="#000000" d="m199.22678 95.33599q0 -2.484375 1.25 -4.15625q1.25 -1.671875 3.359375 -1.671875q2.390625 0 3.65625 1.546875q1.265625 1.53125 1.265625 4.28125q0 2.828125 -1.28125 4.4375q-1.265625 1.59375 -3.640625 1.59375q-2.15625 0 -3.390625 -1.6875q-1.21875 -1.703125 -1.21875 -4.34375zm1.640625 0q0 1.96875 0.78125 3.296875q0.78125 1.3125 2.1875 1.3125q1.609375 0 2.4375 -1.203125q0.84375 -1.21875 0.84375 -3.40625q0 -4.421875 -3.28125 -4.421875q-1.453125 0 -2.21875 1.1875q-0.75 1.1875 -0.75 3.234375zm9.96875 5.828125l0 -11.453125l1.5625 0l0 11.453125l-1.5625 0zm3.65625 -0.53125l0.578125 -1.4375q0.4375 0.328125 1.078125 0.546875q0.65625 0.203125 1.171875 0.203125q0.921875 0 1.46875 -0.5q0.5625 -0.5 0.5625 -1.265625q0 -0.578125 -0.3125 -1.078125q-0.3125 -0.5 -1.546875 -1.078125l-0.921875 -0.4375q-1.171875 -0.546875 -1.640625 -1.296875q-0.46875 -0.75 -0.46875 -1.796875q0 -1.28125 0.90625 -2.125q0.90625 -0.84375 2.328125 -0.84375q1.90625 0 2.640625 0.609375l-0.453125 1.359375q-0.3125 -0.21875 -0.953125 -0.421875q-0.640625 -0.21875 -1.1875 -0.21875q-0.796875 0 -1.265625 0.453125q-0.453125 0.453125 -0.453125 1.15625q0 0.4375 0.15625 0.796875q0.171875 0.359375 0.46875 0.609375q0.296875 0.234375 1.203125 0.671875l0.9375 0.453125q1.171875 0.546875 1.640625 1.328125q0.46875 0.765625 0.46875 1.953125q0 1.28125 -1.03125 2.1875q-1.03125 0.90625 -2.765625 0.90625q-1.53125 0 -2.609375 -0.734375z" fill-rule="nonzero"/><path fill="#000000" fill-opacity="0.0" d="m122.13952 292.55072l82.46874 0l0 45.539886l-82.46874 0z" fill-rule="evenodd"/><path fill="#000000" d="m133.8739 306.86383l0 3.1875l4.03125 0l0 1.328125l-4.03125 0l0 5.53125l-1.5625 0l0 -11.453125l7.078125 0l0 1.40625l-5.515625 0zm6.1796875 5.84375q0 -1.9375 1.03125 -3.125q1.046875 -1.203125 2.75 -1.203125q1.796875 0 2.78125 1.15625q1.0 1.140625 1.0 3.171875q0 2.015625 -1.015625 3.1875q-1.015625 1.171875 -2.765625 1.171875q-1.78125 0 -2.78125 -1.171875q-1.0 -1.1875 -1.0 -3.1875zm1.5625 0q0 3.140625 2.21875 3.140625q1.046875 0 1.625 -0.84375q0.59375 -0.84375 0.59375 -2.296875q0 -3.109375 -2.21875 -3.109375q-1.015625 0 -1.625 0.828125q-0.59375 0.828125 -0.59375 2.28125zm13.8828125 -3.484375l-0.734375 1.046875q-0.234375 -0.234375 -0.8125 -0.4375q-0.5625 -0.203125 -1.125 -0.203125q-1.203125 0 -1.921875 0.859375q-0.703125 0.84375 -0.703125 2.3125q0 1.46875 0.71875 2.25q0.734375 0.765625 2.015625 0.765625q1.0 0 2.015625 -0.78125l0.59375 1.25q-1.203125 0.78125 -2.96875 0.78125q-1.703125 0 -2.828125 -1.140625q-1.109375 -1.15625 -1.109375 -3.125q0 -2.0 1.15625 -3.203125q1.15625 -1.21875 3.171875 -1.21875q0.65625 0 1.40625 0.28125q0.765625 0.265625 1.125 0.5625zm3.015625 -0.6875l0 5.34375q0 1.9375 1.671875 1.9375q0.734375 0 1.34375 -0.421875q0.609375 -0.421875 0.8125 -0.984375l0 -5.875l1.484375 0l0 8.375l-1.484375 0l0 -1.15625q-0.25 0.484375 -1.015625 0.90625q-0.75 0.40625 -1.46875 0.40625q-1.375 0 -2.109375 -0.78125q-0.71875 -0.796875 -0.71875 -2.25l0 -5.5l1.484375 0zm6.7890625 7.875l0.515625 -1.40625q1.25 0.8125 2.0 0.8125q1.375 0 1.375 -1.15625q0 -0.828125 -1.328125 -1.421875q-1.015625 -0.46875 -1.375 -0.703125q-0.359375 -0.25 -0.625 -0.5625q-0.25 -0.3125 -0.390625 -0.65625q-0.125 -0.34375 -0.125 -0.75q0 -1.03125 0.75 -1.609375q0.75 -0.578125 1.96875 -0.578125q0.90625 0 2.296875 0.578125l-0.421875 1.375q-0.875 -0.703125 -1.765625 -0.703125q-0.53125 0 -0.90625 0.25q-0.359375 0.25 -0.359375 0.640625q0 0.796875 0.921875 1.21875l1.0625 0.484375q0.96875 0.4375 1.40625 1.015625q0.453125 0.5625 0.453125 1.421875q0 1.125 -0.796875 1.765625q-0.78125 0.640625 -2.171875 0.640625q-1.328125 0 -2.484375 -0.65625z" fill-rule="nonzero"/><path fill="#000000" fill-opacity="0.0" d="m39.686718 86.31096l102.42639 0l0 45.5399l-102.42639 0z" fill-rule="evenodd"/><path fill="#000000" d="m56.358593 110.67096l-0.78125 -2.421875l-4.265625 0l-0.84375 2.421875l-1.75 0l4.65625 -11.609375l0.40625 0l4.3125 11.609375l-1.734375 0zm-2.859375 -8.609375l-1.765625 5.046875l3.390625 0l-1.625 -5.046875zm7.171875 8.140625l0 3.75l-1.484375 0l0 -11.65625l1.484375 0l0 0.6875q0.84375 -0.84375 2.03125 -0.84375q1.7812462 0 2.7656212 1.109375q1.0 1.109375 1.0 3.25q0 1.90625 -1.0 3.125q-1.0 1.203125 -2.8906212 1.203125q-0.53125 0 -1.140625 -0.1875q-0.59375 -0.1875 -0.765625 -0.4375zm0 -6.09375l0 4.875q0.140625 0.203125 0.59375 0.40625q0.453125 0.1875 0.875 0.1875q2.7656212 0 2.7656212 -3.125q0 -1.59375 -0.65625 -2.328125q-0.6562462 -0.734375 -2.0937462 -0.734375q-0.3125 0 -0.765625 0.21875q-0.453125 0.21875 -0.71875 0.5zm14.476559 2.515625l-6.03125 0q0 1.46875 0.796875 2.265625q0.71875 0.6875 1.828125 0.6875q1.28125 0 2.125 -0.75l0.625 1.078125q-0.34375 0.34375 -1.046875 0.59375q-0.890625 0.328125 -1.984375 0.328125q-1.578125 0 -2.6875 -1.078125q-1.21875 -1.171875 -1.21875 -3.171875q0 -2.0625 1.25 -3.3125q1.125 -1.125 2.671875 -1.125q1.78125 0 2.796875 1.015625q0.984375 0.96875 0.984375 2.5625q0 0.5 -0.109375 0.90625zm-3.609375 -3.234375q-0.984375 0 -1.65625 0.640625q-0.640625 0.609375 -0.734375 1.515625l4.640625 0q0 -0.890625 -0.5625 -1.5q-0.625 -0.65625 -1.6875 -0.65625zm9.8359375 0.34375q-0.484375 -0.34375 -0.984375 -0.34375q-0.78125 0 -1.375 0.734375q-0.59375 0.71875 -0.59375 1.75l0 4.796875l-1.484375 0l0 -8.375l1.484375 0l0 1.34375q0.8125 -1.5 2.421875 -1.5q0.390625 0 1.140625 0.140625l-0.609375 1.453125zm2.203125 -0.265625l-0.96875 0l0 -1.171875l0.96875 0l0 -1.75l1.484375 -0.5625l0 2.3125l2.296875 0l0 1.171875l-2.296875 0l0 4.15625q0 1.0625 0.34375 1.515625q0.359375 0.4375 1.15625 0.4375q0.5625 0 1.171875 -0.296875l0.21875 1.3125q-0.921875 0.234375 -2.015625 0.234375q-1.0 0 -1.6875 -0.734375q-0.671875 -0.75 -0.671875 -1.875l0 -4.75zm7.21875 -1.171875l0 5.34375q0 1.9375 1.671875 1.9375q0.734375 0 1.34375 -0.421875q0.609375 -0.421875 0.8125 -0.984375l0 -5.875l1.484375 0l0 8.375l-1.484375 0l0 -1.15625q-0.25 0.484375 -1.015625 0.90625q-0.75 0.40625 -1.46875 0.40625q-1.375 0 -2.109375 -0.78125q-0.71875 -0.796875 -0.71875 -2.25l0 -5.5l1.484375 0zm11.8828125 1.4375q-0.484375 -0.34375 -0.984375 -0.34375q-0.78125 0 -1.375 0.734375q-0.59375 0.71875 -0.59375 1.75l0 4.796875l-1.484375 0l0 -8.375l1.484375 0l0 1.34375q0.8125 -1.5 2.421875 -1.5q0.390625 0 1.140625 0.140625l-0.609375 1.453125zm8.71875 2.890625l-6.03125 0q0 1.46875 0.796875 2.265625q0.71875 0.6875 1.828125 0.6875q1.28125 0 2.125 -0.75l0.625 1.078125q-0.34375 0.34375 -1.046875 0.59375q-0.890625 0.328125 -1.984375 0.328125q-1.578125 0 -2.6875 -1.078125q-1.21875 -1.171875 -1.21875 -3.171875q0 -2.0625 1.25 -3.3125q1.125 -1.125 2.671875 -1.125q1.78125 0 2.796875 1.015625q0.984375 0.96875 0.984375 2.5625q0 0.5 -0.109375 0.90625zm-3.609375 -3.234375q-0.984375 0 -1.65625 0.640625q-0.640625 0.609375 -0.734375 1.515625l4.640625 0q0 -0.890625 -0.5625 -1.5q-0.625 -0.65625 -1.6875 -0.65625z" fill-rule="nonzero"/><path fill="#000000" fill-opacity="0.0" d="m245.25319 31.264208l121.734116 0l0 45.53991l-121.734116 0z" fill-rule="evenodd"/><path fill="#000000" d="m256.98758 45.577335l0 3.1875l3.78125 0l0 1.328125l-3.78125 0l0 4.125l5.1875 0l0 1.40625l-6.7500153 0l0 -11.453125l6.8437653 0l0 1.40625l-5.28125 0zm7.0078125 7.671875l0 -9.421875l1.484375 0l0 9.171875q0 0.671875 0.390625 1.0625q0.390625 0.390625 1.015625 0.390625l0 1.328125q-2.890625 0 -2.890625 -2.53125zm11.65625 -1.671875l-6.03125 0q0 1.46875 0.796875 2.265625q0.71875 0.6875 1.828125 0.6875q1.28125 0 2.125 -0.75l0.625 1.078125q-0.34375 0.34375 -1.046875 0.59375q-0.890625 0.328125 -1.984375 0.328125q-1.578125 0 -2.6875 -1.078125q-1.21875 -1.171875 -1.21875 -3.171875q0 -2.0625 1.25 -3.3125q1.125 -1.125 2.671875 -1.125q1.78125 0 2.796875 1.015625q0.984375 0.96875 0.984375 2.5625q0 0.5 -0.109375 0.90625zm-3.609375 -3.234375q-0.984375 0 -1.65625 0.640625q-0.640625 0.609375 -0.734375 1.515625l4.640625 0q0 -0.890625 -0.5625 -1.5q-0.625 -0.65625 -1.6875 -0.65625zm11.6015625 -0.40625l-0.734375 1.046875q-0.234375 -0.234375 -0.8125 -0.4375q-0.5625 -0.203125 -1.125 -0.203125q-1.203125 0 -1.921875 0.859375q-0.703125 0.84375 -0.703125 2.3125q0 1.46875 0.71875 2.25q0.734375 0.765625 2.015625 0.765625q1.0 0 2.015625 -0.78125l0.59375 1.25q-1.203125 0.78125 -2.96875 0.78125q-1.703125 0 -2.828125 -1.140625q-1.109375 -1.15625 -1.109375 -3.125q0 -2.0 1.15625 -3.203125q1.15625 -1.21875 3.171875 -1.21875q0.65625 0 1.40625 0.28125q0.765625 0.265625 1.125 0.5625zm2.140625 0.484375l-0.96875 0l0 -1.171875l0.96875 0l0 -1.75l1.484375 -0.5625l0 2.3125l2.296875 0l0 1.171875l-2.296875 0l0 4.15625q0 1.0625 0.34375 1.515625q0.359375 0.4375 1.15625 0.4375q0.5625 0 1.171875 -0.296875l0.21875 1.3125q-0.921875 0.234375 -2.015625 0.234375q-1.0 0 -1.6875 -0.734375q-0.671875 -0.75 -0.671875 -1.875l0 -4.75zm10.359375 0.265625q-0.484375 -0.34375 -0.984375 -0.34375q-0.78125 0 -1.375 0.734375q-0.59375 0.71875 -0.59375 1.75l0 4.796875l-1.484375 0l0 -8.375l1.484375 0l0 1.34375q0.8125 -1.5 2.421875 -1.5q0.390625 0 1.140625 0.140625l-0.609375 1.453125zm1.125 2.734375q0 -1.9375 1.03125 -3.125q1.046875 -1.203125 2.75 -1.203125q1.796875 0 2.78125 1.15625q1.0 1.140625 1.0 3.171875q0 2.015625 -1.015625 3.1875q-1.015625 1.171875 -2.765625 1.171875q-1.78125 0 -2.78125 -1.171875q-1.0 -1.1875 -1.0 -3.1875zm1.5625 0q0 3.140625 2.21875 3.140625q1.046875 0 1.625 -0.84375q0.59375 -0.84375 0.59375 -2.296875q0 -3.109375 -2.21875 -3.109375q-1.015625 0 -1.625 0.828125q-0.59375 0.828125 -0.59375 2.28125zm12.7109375 4.203125l0 -4.875q0 -1.328125 -0.40625 -1.859375q-0.390625 -0.546875 -1.34375 -0.546875q-0.5 0 -1.0625 0.3125q-0.546875 0.296875 -0.84375 0.75l0 6.21875l-1.484375 0l0 -8.375l1.015625 0l0.46875 1.078125q0.734375 -1.234375 2.390625 -1.234375q2.75 0 2.75 3.34375l0 5.1875l-1.484375 0zm5.1328125 -11.53125q0.375 0 0.640625 0.265625q0.28125 0.265625 0.28125 0.640625q0 0.390625 -0.28125 0.65625q-0.265625 0.265625 -0.640625 0.265625q-0.375 0 -0.65625 -0.265625q-0.265625 -0.265625 -0.265625 -0.65625q0 -0.375 0.265625 -0.640625q0.265625 -0.265625 0.65625 -0.265625zm-0.8125 11.53125l0 -7.125l-1.15625 0l0 -1.25l2.640625 0l0 8.375l-1.484375 0zm10.15625 -7.6875l-0.734375 1.046875q-0.234375 -0.234375 -0.8125 -0.4375q-0.5625 -0.203125 -1.125 -0.203125q-1.203125 0 -1.921875 0.859375q-0.703125 0.84375 -0.703125 2.3125q0 1.46875 0.71875 2.25q0.734375 0.765625 2.015625 0.765625q1.0 0 2.015625 -0.78125l0.59375 1.25q-1.203125 0.78125 -2.96875 0.78125q-1.703125 0 -2.828125 -1.140625q-1.109375 -1.15625 -1.109375 -3.125q0 -2.0 1.15625 -3.203125q1.15625 -1.21875 3.171875 -1.21875q0.65625 0 1.40625 0.28125q0.765625 0.265625 1.125 0.5625z" fill-rule="nonzero"/><path fill="#000000" d="m254.90944 74.09296l0.578125 -1.4375q0.4375 0.328125 1.0781403 0.546875q0.65625 0.203125 1.171875 0.203125q0.921875 0 1.46875 -0.5q0.5625 -0.5 0.5625 -1.265625q0 -0.578125 -0.3125 -1.078125q-0.3125 -0.5 -1.546875 -1.078125l-0.921875 -0.4375q-1.1718903 -0.546875 -1.6406403 -1.296875q-0.46875 -0.75 -0.46875 -1.796875q0 -1.28125 0.90625 -2.1249962q0.90626526 -0.84375 2.3281403 -0.84375q1.90625 0 2.640625 0.609375l-0.453125 1.3593712q-0.3125 -0.21875 -0.953125 -0.421875q-0.640625 -0.21875 -1.1875 -0.21875q-0.796875 0 -1.265625 0.453125q-0.453125 0.453125 -0.453125 1.15625q0 0.4375 0.15625 0.796875q0.171875 0.359375 0.46875 0.609375q0.296875 0.234375 1.203125 0.671875l0.9375 0.453125q1.171875 0.546875 1.640625 1.328125q0.46875 0.765625 0.46875 1.953125q0 1.28125 -1.03125 2.1875q-1.03125 0.90625 -2.765625 0.90625q-1.5312653 0 -2.6093903 -0.734375zm13.257828 0.53125l0 -5.265625q0 -0.9375 -0.46875 -1.46875q-0.453125 -0.546875 -1.296875 -0.546875q-0.53125 0 -1.078125 0.328125q-0.546875 0.3125 -0.828125 0.734375l0 6.21875l-1.484375 0l0 -11.796871l1.484375 0l0 4.343746q0.296875 -0.453125 0.953125 -0.765625q0.65625 -0.3125 1.359375 -0.3125q1.328125 0 2.078125 0.875q0.765625 0.875 0.765625 2.390625l0 5.265625l-1.484375 0zm4.9921875 -8.375l0 5.34375q0 1.9375 1.671875 1.9375q0.734375 0 1.34375 -0.421875q0.609375 -0.421875 0.8125 -0.984375l0 -5.875l1.484375 0l0 8.375l-1.484375 0l0 -1.15625q-0.25 0.484375 -1.015625 0.90625q-0.75 0.40625 -1.46875 0.40625q-1.375 0 -2.109375 -0.78125q-0.71875 -0.796875 -0.71875 -2.25l0 -5.5l1.484375 0zm7.8671875 1.171875l-0.96875 0l0 -1.171875l0.96875 0l0 -1.75l1.484375 -0.5624962l0 2.3124962l2.296875 0l0 1.171875l-2.296875 0l0 4.15625q0 1.0625 0.34375 1.515625q0.359375 0.4375 1.15625 0.4375q0.5625 0 1.171875 -0.296875l0.21875 1.3125q-0.921875 0.234375 -2.015625 0.234375q-1.0 0 -1.6875 -0.734375q-0.671875 -0.75 -0.671875 -1.875l0 -4.75zm6.34375 0l-0.96875 0l0 -1.171875l0.96875 0l0 -1.75l1.484375 -0.5624962l0 2.3124962l2.296875 0l0 1.171875l-2.296875 0l0 4.15625q0 1.0625 0.34375 1.515625q0.359375 0.4375 1.15625 0.4375q0.5625 0 1.171875 -0.296875l0.21875 1.3125q-0.921875 0.234375 -2.015625 0.234375q-1.0 0 -1.6875 -0.734375q-0.671875 -0.75 -0.671875 -1.875l0 -4.75zm12.859375 3.15625l-6.03125 0q0 1.46875 0.796875 2.265625q0.71875 0.6875 1.828125 0.6875q1.28125 0 2.125 -0.75l0.625 1.078125q-0.34375 0.34375 -1.046875 0.59375q-0.890625 0.328125 -1.984375 0.328125q-1.578125 0 -2.6875 -1.078125q-1.21875 -1.171875 -1.21875 -3.171875q0 -2.0625 1.25 -3.3125q1.125 -1.125 2.671875 -1.125q1.78125 0 2.796875 1.015625q0.984375 0.96875 0.984375 2.5625q0 0.5 -0.109375 0.90625zm-3.609375 -3.234375q-0.984375 0 -1.65625 0.640625q-0.640625 0.609375 -0.734375 1.515625l4.640625 0q0 -0.890625 -0.5625 -1.5q-0.625 -0.65625 -1.6875 -0.65625zm9.8359375 0.34375q-0.484375 -0.34375 -0.984375 -0.34375q-0.78125 0 -1.375 0.734375q-0.59375 0.71875 -0.59375 1.75l0 4.796875l-1.484375 0l0 -8.375l1.484375 0l0 1.34375q0.8125 -1.5 2.421875 -1.5q0.390625 0 1.140625 0.140625l-0.609375 1.453125z" fill-rule="nonzero"/><path fill="#000000" fill-opacity="0.0" d="m239.5724 153.36227l41.215256 -61.99778" fill-rule="evenodd"/><path stroke="#000000" stroke-width="1.0" stroke-linejoin="round" stroke-linecap="butt" stroke-dasharray="1.0,3.0" d="m241.4697 150.5083l39.317963 -59.143806" fill-rule="evenodd"/><path fill="#000000" stroke="#000000" stroke-width="1.0" stroke-linecap="butt" d="m241.4697 150.50829l-0.31393433 -1.5590973l-0.7740326 3.1956635l2.6470642 -1.9505005z" fill-rule="evenodd"/><path fill="#000000" fill-opacity="0.0" d="m122.13952 342.53748l102.4264 0l0 45.539886l-102.4264 0z" fill-rule="evenodd"/><path fill="#0000ff" d="m132.3114 366.89746l0 -11.453125l2.03125 0l0 9.640625l5.171875 0l0 1.8125l-7.203125 0zm16.203125 -3.59375l-5.984375 0q0.0625 1.0 0.6875 1.5625q0.640625 0.546875 1.703125 0.546875q1.34375 0 2.03125 -0.6875l0.765625 1.484375q-1.03125 0.84375 -3.078125 0.84375q-1.921875 0 -3.03125 -1.125q-1.109375 -1.125 -1.109375 -3.125q0 -1.984375 1.21875 -3.203125q1.21875 -1.234375 2.9375 -1.234375q1.8125 0 2.90625 1.09375q1.109375 1.078125 1.109375 2.765625q0 0.359375 -0.15625 1.078125zm-5.90625 -1.46875l4.109375 0q-0.203125 -1.828125 -2.03125 -1.828125q-1.671875 0 -2.078125 1.828125zm13.0078125 5.0625l0 -4.84375q0 -1.0625 -0.40625 -1.546875q-0.40625 -0.5 -1.34375 -0.5q-0.421875 0 -0.921875 0.25q-0.484375 0.234375 -0.75 0.59375l0 6.046875l-1.953125 0l0 -8.375l1.40625 0l0.359375 0.78125q0.796875 -0.9375 2.34375 -0.9375q1.5 0 2.359375 0.90625q0.859375 0.890625 0.859375 2.484375l0 5.140625l-1.953125 0zm3.5546875 -0.546875l0.6875 -1.546875q0.875 0.6875 1.984375 0.6875q1.140625 0 1.140625 -0.8125q0 -0.46875 -0.34375 -0.765625q-0.34375 -0.3125 -1.34375 -0.734375q-2.15625 -0.890625 -2.15625 -2.515625q0 -1.078125 0.828125 -1.6875q0.828125 -0.609375 2.109375 -0.609375q1.3125 0 2.453125 0.59375l-0.5625 1.515625q-0.640625 -0.546875 -1.78125 -0.546875q-1.015625 0 -1.015625 0.8125q0 0.3125 0.328125 0.578125q0.34375 0.25 1.4375 0.6875q1.109375 0.4375 1.59375 1.0625q0.484375 0.609375 0.484375 1.484375q0 1.15625 -0.875 1.828125q-0.859375 0.671875 -2.34375 0.671875q-0.828125 0 -1.34375 -0.140625q-0.5 -0.140625 -1.28125 -0.5625z" fill-rule="nonzero"/><path fill="#000000" fill-opacity="0.0" d="m183.6183 342.5794l102.42641 0l0 45.539917l-102.42641 0z" fill-rule="evenodd"/><path fill="#0000ff" d="m198.06361 366.2988l0.75 -1.8125q1.203125 0.84375 2.375 0.84375q1.78125 0 1.78125 -1.25q0 -0.59375 -0.421875 -1.125q-0.421875 -0.53125 -1.734375 -1.1875q-1.3125 -0.65625 -1.78125 -1.078125q-0.453125 -0.4375 -0.703125 -1.015625q-0.234375 -0.59375 -0.234375 -1.296875q0 -1.328125 0.96875 -2.203125q0.96875 -0.875 2.5 -0.875q1.984375 0 2.90625 0.734375l-0.609375 1.75q-1.078125 -0.765625 -2.265625 -0.765625q-0.703125 0 -1.09375 0.375q-0.375 0.375 -0.375 0.96875q0 0.984375 2.171875 2.046875q1.15625 0.5625 1.65625 1.03125q0.515625 0.46875 0.78125 1.109375q0.265625 0.625 0.265625 1.390625q0 1.390625 -1.109375 2.296875q-1.09375 0.90625 -2.9375 0.90625q-1.59375 0 -2.890625 -0.84375zm16.085938 -2.953125l-5.984375 0q0.0625 1.0 0.6875 1.5625q0.640625 0.546875 1.703125 0.546875q1.34375 0 2.03125 -0.6875l0.765625 1.484375q-1.03125 0.84375 -3.078125 0.84375q-1.921875 0 -3.03125 -1.125q-1.109375 -1.125 -1.109375 -3.125q0 -1.984375 1.21875 -3.203125q1.21875 -1.234375 2.9375 -1.234375q1.8125 0 2.90625 1.09375q1.109375 1.078125 1.109375 2.765625q0 0.359375 -0.15625 1.078125zm-5.90625 -1.46875l4.109375 0q-0.203125 -1.828125 -2.03125 -1.828125q-1.671875 0 -2.078125 1.828125zm13.0078125 5.0625l0 -4.84375q0 -1.0625 -0.40625 -1.546875q-0.40625 -0.5 -1.34375 -0.5q-0.421875 0 -0.921875 0.25q-0.484375 0.234375 -0.75 0.59375l0 6.046875l-1.953125 0l0 -8.375l1.40625 0l0.359375 0.78125q0.796875 -0.9375 2.34375 -0.9375q1.5 0 2.359375 0.90625q0.859375 0.890625 0.859375 2.484375l0 5.140625l-1.953125 0zm3.5546875 -0.546875l0.6875 -1.546875q0.875 0.6875 1.984375 0.6875q1.140625 0 1.140625 -0.8125q0 -0.46875 -0.34375 -0.765625q-0.34375 -0.3125 -1.34375 -0.734375q-2.15625 -0.890625 -2.15625 -2.515625q0 -1.078125 0.828125 -1.6875q0.828125 -0.609375 2.109375 -0.609375q1.3125 0 2.453125 0.59375l-0.5625 1.515625q-0.640625 -0.546875 -1.78125 -0.546875q-1.015625 0 -1.015625 0.8125q0 0.3125 0.328125 0.578125q0.34375 0.25 1.4375 0.6875q1.109375 0.4375 1.59375 1.0625q0.484375 0.609375 0.484375 1.484375q0 1.15625 -0.875 1.828125q-0.859375 0.671875 -2.34375 0.671875q-0.828125 0 -1.34375 -0.140625q-0.5 -0.140625 -1.28125 -0.5625zm6.859375 -3.65625q0 -1.921875 1.09375 -3.125q1.109375 -1.203125 2.921875 -1.203125q1.90625 0 2.953125 1.15625q1.0625 1.15625 1.0625 3.171875q0 2.0 -1.078125 3.1875q-1.0625 1.171875 -2.9375 1.171875q-1.90625 0 -2.96875 -1.1875q-1.046875 -1.203125 -1.046875 -3.171875zm2.03125 0q0 2.765625 1.984375 2.765625q0.921875 0 1.453125 -0.71875q0.53125 -0.71875 0.53125 -2.046875q0 -2.734375 -1.984375 -2.734375q-0.90625 0 -1.453125 0.71875q-0.53125 0.71875 -0.53125 2.015625zm12.3984375 -2.34375q-0.515625 -0.34375 -1.140625 -0.34375q-0.6875 0 -1.21875 0.625q-0.515625 0.609375 -0.515625 1.5l0 4.765625l-1.953125 0l0 -8.375l1.953125 0l0 0.765625q0.8125 -0.921875 2.171875 -0.921875q1.0 0 1.53125 0.3125l-0.828125 1.671875z" fill-rule="nonzero"/><path fill="#000000" fill-opacity="0.0" d="m234.8315 342.5794l-9.634735 -113.9272" fill-rule="evenodd"/><path stroke="#000000" stroke-width="1.0" stroke-linejoin="round" stroke-linecap="butt" stroke-dasharray="1.0,3.0" d="m234.83148 342.5794l-9.129089 -107.94855" fill-rule="evenodd"/><path fill="#000000" stroke="#000000" stroke-width="1.0" stroke-linecap="butt" d="m227.34824 234.49168l-2.0282745 -4.3827667l-1.263443 4.661133z" fill-rule="evenodd"/><path fill="#000000" fill-opacity="0.0" d="m27.206806 182.47012l204.8528 -1.8975067" fill-rule="evenodd"/><path stroke="#000000" stroke-width="1.0" stroke-linejoin="round" stroke-linecap="butt" stroke-dasharray="4.0,3.0" d="m27.206806 182.47012l204.8528 -1.8975067" fill-rule="evenodd"/><path fill="#000000" fill-opacity="0.0" d="m25.941929 147.03406l132.43936 0" fill-rule="evenodd"/><path stroke="#000000" stroke-width="1.0" stroke-linejoin="round" stroke-linecap="butt" stroke-dasharray="4.0,3.0" d="m25.941929 147.03406l132.43936 0" fill-rule="evenodd"/><path fill="#000000" fill-opacity="0.0" d="m25.941929 221.11708l132.43936 0" fill-rule="evenodd"/><path stroke="#000000" stroke-width="1.0" stroke-linejoin="round" stroke-linecap="butt" stroke-dasharray="4.0,3.0" d="m25.941929 221.11708l132.43936 0" fill-rule="evenodd"/><path fill="#000000" fill-opacity="0.0" d="m158.38448 148.31519l59.949448 32.25743" fill-rule="evenodd"/><path stroke="#000000" stroke-width="1.0" stroke-linejoin="round" stroke-linecap="butt" stroke-dasharray="4.0,3.0" d="m158.38448 148.31519l59.949448 32.25743" fill-rule="evenodd"/><path fill="#000000" fill-opacity="0.0" d="m160.56375 219.14214l57.770172 -38.56952" fill-rule="evenodd"/><path stroke="#000000" stroke-width="1.0" stroke-linejoin="round" stroke-linecap="butt" stroke-dasharray="4.0,3.0" d="m160.56375 219.14214l57.770172 -38.56952" fill-rule="evenodd"/><path fill="#f3f3f3" d="m130.8694 409.52423l51.232315 0l0 86.045654l-51.232315 0z" fill-rule="evenodd"/><path stroke="#000000" stroke-width="1.0" stroke-linejoin="round" stroke-linecap="butt" d="m130.8694 409.52423l51.232315 0l0 86.045654l-51.232315 0z" fill-rule="evenodd"/><path fill="#000000" fill-opacity="0.0" d="m122.13952 491.21014l102.4264 0l0 45.539917l-102.4264 0z" fill-rule="evenodd"/><path fill="#0000ff" d="m134.34265 505.92953l0 2.671875l4.03125 0l0 1.734375l-4.03125 0l0 5.2343445l-2.03125 0l0 -11.4530945l7.546875 0l0 1.8125l-5.515625 0zm7.5234375 -1.84375l1.953125 -0.46875l0 9.4062195q0 1.546875 0.921875 1.84375q-0.453125 0.859375 -1.546875 0.859375q-1.328125 0 -1.328125 -1.84375l0 -9.7968445zm9.046875 10.6405945q-0.265625 0.4375 -0.9375 0.71875q-0.65625 0.28125 -1.375 0.28125q-1.34375 0 -2.125 -0.671875q-0.765625 -0.6875 -0.765625 -1.921875q0 -1.4530945 1.078125 -2.2655945q1.09375 -0.828125 3.109375 -0.828125q0.34375 0 0.8125 0.109375q0 -1.46875 -1.875 -1.46875q-1.09375 0 -1.84375 0.359375l-0.421875 -1.515625q1.015625 -0.484375 2.40625 -0.484375q1.90625 0 2.796875 0.875q0.890625 0.875 0.890625 3.296875l0 1.7968445q0 1.671875 0.671875 2.09375q-0.234375 0.421875 -0.53125 0.515625q-0.296875 0.109375 -0.6875 0.109375q-0.421875 0 -0.765625 -0.3125q-0.328125 -0.3125 -0.4375 -0.6875zm-0.1875 -3.0937195q-0.5 -0.109375 -0.75 -0.109375q-2.3125 0 -2.3125 1.5155945q0 1.125 1.296875 1.125q1.765625 0 1.765625 -1.75l0 -0.7812195zm3.5390625 3.3905945l0.6875 -1.546875q0.875 0.6875 1.984375 0.6875q1.140625 0 1.140625 -0.8125q0 -0.46875 -0.34375 -0.765625q-0.34375 -0.3125 -1.34375 -0.7343445q-2.15625 -0.890625 -2.15625 -2.515625q0 -1.078125 0.828125 -1.6875q0.828125 -0.609375 2.109375 -0.609375q1.3125 0 2.453125 0.59375l-0.5625 1.515625q-0.640625 -0.546875 -1.78125 -0.546875q-1.015625 0 -1.015625 0.8125q0 0.3125 0.328125 0.578125q0.34375 0.25 1.4375 0.6875q1.109375 0.4375 1.59375 1.0625q0.484375 0.6093445 0.484375 1.4843445q0 1.15625 -0.875 1.828125q-0.859375 0.671875 -2.34375 0.671875q-0.828125 0 -1.34375 -0.140625q-0.5 -0.140625 -1.28125 -0.5625zm12.8125 0.546875l0 -5.1562195q0 -0.78125 -0.484375 -1.25q-0.484375 -0.46875 -1.265625 -0.46875q-0.484375 0 -0.984375 0.265625q-0.484375 0.265625 -0.6875 0.59375l0 6.0155945l-1.984375 0l0 -11.4843445l1.984375 -0.46875l0 4.109375q0.75 -0.6875 2.078125 -0.6875q1.578125 0 2.4375 0.875q0.875 0.875 0.875 2.5l0 5.1562195l-1.96875 0z" fill-rule="nonzero"/><path fill="#f3f3f3" d="m413.2327 97.68352l87.433075 0l0 82.23622l-87.433075 0z" fill-rule="evenodd"/><path stroke="#000000" stroke-width="1.0" stroke-linejoin="round" stroke-linecap="butt" d="m413.2327 97.68352l87.433075 0l0 82.23622l-87.433075 0z" fill-rule="evenodd"/><path fill="#000000" d="m446.35257 145.72162l0 -13.34375l1.8125 0l0 13.34375l-1.8125 0zm4.2705383 -0.609375l0.671875 -1.671875q0.5 0.375 1.265625 0.625q0.765625 0.25 1.359375 0.25q1.0625 0 1.703125 -0.578125q0.65625 -0.59375 0.65625 -1.5q0 -0.671875 -0.359375 -1.25q-0.359375 -0.578125 -1.8125 -1.265625l-1.078125 -0.5q-1.359375 -0.625 -1.90625 -1.5q-0.53125 -0.875 -0.53125 -2.109375q0 -1.5 1.046875 -2.484375q1.0625 -0.984375 2.71875 -0.984375q2.21875 0 3.078125 0.71875l-0.53125 1.59375q-0.375 -0.265625 -1.125 -0.515625q-0.734375 -0.25 -1.375 -0.25q-0.9375 0 -1.46875 0.53125q-0.53125 0.53125 -0.53125 1.359375q0 0.515625 0.1875 0.9375q0.203125 0.40625 0.53125 0.703125q0.34375 0.28125 1.40625 0.78125l1.09375 0.515625q1.359375 0.65625 1.90625 1.5625q0.5625 0.890625 0.5625 2.265625q0 1.5 -1.203125 2.5625q-1.203125 1.046875 -3.234375 1.046875q-1.78125 0 -3.03125 -0.84375zm11.394714 -4.53125l0 5.140625l-1.828125 0l0 -13.34375q2.078125 -0.09375 2.5 -0.09375q5.8125 0 5.8125 3.890625q0 4.5 -5.140625 4.5q-0.296875 0 -1.34375 -0.09375zm0 -6.5625l0 4.921875q1.15625 0.09375 1.21875 0.09375q3.390625 0 3.390625 -2.671875q0 -2.4375 -3.609375 -2.4375q-0.375 0 -1.0 0.09375z" fill-rule="nonzero"/><path fill="#f3f3f3" d="m413.2327 194.54033l87.433075 0l0 82.23622l-87.433075 0z" fill-rule="evenodd"/><path stroke="#000000" stroke-width="1.0" stroke-linejoin="round" stroke-linecap="butt" d="m413.2327 194.54033l87.433075 0l0 82.23622l-87.433075 0z" fill-rule="evenodd"/><path fill="#000000" d="m445.58737 242.57843l-2.6875 0l0 -13.34375q2.578125 -0.09375 3.296875 -0.09375q2.796875 0 4.421875 1.703125q1.640625 1.703125 1.640625 4.515625q0 7.21875 -6.671875 7.21875zm-0.859375 -11.703125l0 9.96875q0.609375 0.09375 1.515625 0.09375q1.90625 0 3.0 -1.4375q1.09375 -1.4375 1.09375 -3.984375q0 -4.734375 -4.25 -4.734375q-0.25 0 -1.359375 0.09375zm9.019653 11.09375l0.671875 -1.671875q0.5 0.375 1.265625 0.625q0.765625 0.25 1.359375 0.25q1.0625 0 1.703125 -0.578125q0.65625 -0.59375 0.65625 -1.5q0 -0.671875 -0.359375 -1.25q-0.359375 -0.578125 -1.8125 -1.265625l-1.078125 -0.5q-1.359375 -0.625 -1.90625 -1.5q-0.53125 -0.875 -0.53125 -2.109375q0 -1.5 1.046875 -2.484375q1.0625 -0.984375 2.71875 -0.984375q2.21875 0 3.078125 0.71875l-0.53125 1.59375q-0.375 -0.265625 -1.125 -0.515625q-0.734375 -0.25 -1.375 -0.25q-0.9375 0 -1.46875 0.53125q-0.53125 0.53125 -0.53125 1.359375q0 0.515625 0.1875 0.9375q0.203125 0.40625 0.53125 0.703125q0.34375 0.28125 1.40625 0.78125l1.09375 0.515625q1.359375 0.65625 1.90625 1.5625q0.5625 0.890625 0.5625 2.265625q0 1.5 -1.203125 2.5625q-1.203125 1.046875 -3.234375 1.046875q-1.78125 0 -3.03125 -0.84375zm11.394745 -4.53125l0 5.140625l-1.828125 0l0 -13.34375q2.078125 -0.09375 2.5 -0.09375q5.8125 0 5.8125 3.890625q0 4.5 -5.140625 4.5q-0.296875 0 -1.34375 -0.09375zm0 -6.5625l0 4.921875q1.15625 0.09375 1.21875 0.09375q3.390625 0 3.390625 -2.671875q0 -2.4375 -3.609375 -2.4375q-0.375 0 -1.0 0.09375z" fill-rule="nonzero"/><path fill="#f3f3f3" d="m519.41455 97.68352l156.72443 0l0 82.23622l-156.72443 0z" fill-rule="evenodd"/><path stroke="#000000" stroke-width="1.0" stroke-linejoin="round" stroke-linecap="butt" d="m519.41455 97.68352l156.72443 0l0 82.23622l-156.72443 0z" fill-rule="evenodd"/><path fill="#000000" d="m561.2423 140.581l0 5.140625l-1.828125 0l0 -13.34375q2.078125 -0.09375 2.5 -0.09375q5.8125 0 5.8125 3.890625q0 4.5 -5.140625 4.5q-0.296875 0 -1.34375 -0.09375zm0 -6.5625l0 4.921875q1.15625 0.09375 1.21875 0.09375q3.390625 0 3.390625 -2.671875q0 -2.4375 -3.609375 -2.4375q-0.375 0 -1.0 0.09375zm13.746826 3.609375q-0.5625 -0.390625 -1.140625 -0.390625q-0.921875 0 -1.609375 0.859375q-0.6875 0.84375 -0.6875 2.03125l0 5.59375l-1.734375 0l0 -9.75l1.734375 0l0 1.546875q0.953125 -1.734375 2.8125 -1.734375q0.46875 0 1.34375 0.15625l-0.71875 1.6875zm1.3136597 3.1875q0 -2.25 1.21875 -3.640625q1.21875 -1.390625 3.203125 -1.390625q2.09375 0 3.25 1.34375q1.15625 1.328125 1.15625 3.6875q0 2.359375 -1.1875 3.734375q-1.1875 1.359375 -3.21875 1.359375q-2.09375 0 -3.265625 -1.375q-1.15625 -1.375 -1.15625 -3.71875zm1.8125 0q0 3.671875 2.609375 3.671875q1.203125 0 1.890625 -0.984375q0.6875 -0.984375 0.6875 -2.6875q0 -3.625 -2.578125 -3.625q-1.1875 0 -1.90625 0.96875q-0.703125 0.96875 -0.703125 2.65625zm16.198792 -4.0625l-0.859375 1.21875q-0.265625 -0.25 -0.9375 -0.484375q-0.671875 -0.25 -1.3125 -0.25q-1.40625 0 -2.25 1.0q-0.828125 0.984375 -0.828125 2.703125q0 1.71875 0.84375 2.609375q0.859375 0.890625 2.359375 0.890625q1.171875 0 2.359375 -0.890625l0.671875 1.453125q-1.390625 0.90625 -3.453125 0.90625q-1.984375 0 -3.296875 -1.34375q-1.296875 -1.34375 -1.296875 -3.625q0 -2.328125 1.34375 -3.734375q1.359375 -1.421875 3.703125 -1.421875q0.765625 0 1.640625 0.328125q0.890625 0.3125 1.3125 0.640625zm10.096436 4.265625l-7.046875 0q0 1.703125 0.953125 2.625q0.828125 0.796875 2.125 0.796875q1.484375 0 2.484375 -0.859375l0.71875 1.25q-0.390625 0.40625 -1.234375 0.6875q-1.03125 0.390625 -2.3125 0.390625q-1.828125 0 -3.125 -1.25q-1.421875 -1.375 -1.421875 -3.703125q0 -2.40625 1.46875 -3.875q1.3125 -1.296875 3.109375 -1.296875q2.078125 0 3.265625 1.171875q1.140625 1.125 1.140625 3.0q0 0.578125 -0.125 1.0625zm-4.203125 -3.78125q-1.15625 0 -1.9375 0.75q-0.75 0.71875 -0.859375 1.765625l5.40625 0q0 -1.046875 -0.65625 -1.75q-0.71875 -0.765625 -1.953125 -0.765625zm5.519043 7.90625l0.609375 -1.640625q1.453125 0.9375 2.328125 0.9375q1.609375 0 1.609375 -1.34375q0 -0.96875 -1.546875 -1.65625q-1.203125 -0.546875 -1.625 -0.828125q-0.40625 -0.28125 -0.71875 -0.640625q-0.296875 -0.359375 -0.453125 -0.765625q-0.140625 -0.40625 -0.140625 -0.875q0 -1.203125 0.875 -1.875q0.875 -0.671875 2.28125 -0.671875q1.0625 0 2.6875 0.671875l-0.484375 1.609375q-1.03125 -0.828125 -2.078125 -0.828125q-0.609375 0 -1.03125 0.296875q-0.421875 0.296875 -0.421875 0.734375q0 0.9375 1.0625 1.421875l1.234375 0.5625q1.140625 0.515625 1.65625 1.1875q0.515625 0.671875 0.515625 1.671875q0 1.3125 -0.921875 2.0625q-0.90625 0.734375 -2.546875 0.734375q-1.53125 0 -2.890625 -0.765625zm7.551758 0l0.609375 -1.640625q1.453125 0.9375 2.328125 0.9375q1.609375 0 1.609375 -1.34375q0 -0.96875 -1.546875 -1.65625q-1.203125 -0.546875 -1.625 -0.828125q-0.40625 -0.28125 -0.71875 -0.640625q-0.296875 -0.359375 -0.453125 -0.765625q-0.140625 -0.40625 -0.140625 -0.875q0 -1.203125 0.875 -1.875q0.875 -0.671875 2.28125 -0.671875q1.0625 0 2.6875 0.671875l-0.484375 1.609375q-1.03125 -0.828125 -2.078125 -0.828125q-0.609375 0 -1.03125 0.296875q-0.421875 0.296875 -0.421875 0.734375q0 0.9375 1.0625 1.421875l1.234375 0.5625q1.140625 0.515625 1.65625 1.1875q0.515625 0.671875 0.515625 1.671875q0 1.3125 -0.921875 2.0625q-0.90625 0.734375 -2.546875 0.734375q-1.53125 0 -2.890625 -0.765625zm7.551819 -4.328125q0 -2.25 1.21875 -3.640625q1.21875 -1.390625 3.203125 -1.390625q2.09375 0 3.25 1.34375q1.15625 1.328125 1.15625 3.6875q0 2.359375 -1.1875 3.734375q-1.1875 1.359375 -3.21875 1.359375q-2.09375 0 -3.265625 -1.375q-1.15625 -1.375 -1.15625 -3.71875zm1.8125 0q0 3.671875 2.609375 3.671875q1.203125 0 1.890625 -0.984375q0.6875 -0.984375 0.6875 -2.6875q0 -3.625 -2.578125 -3.625q-1.1875 0 -1.90625 0.96875q-0.703125 0.96875 -0.703125 2.65625zm14.1362915 -3.1875q-0.5625 -0.390625 -1.140625 -0.390625q-0.921875 0 -1.609375 0.859375q-0.6875 0.84375 -0.6875 2.03125l0 5.59375l-1.734375 0l0 -9.75l1.734375 0l0 1.546875q0.953125 -1.734375 2.8125 -1.734375q0.46875 0 1.34375 0.15625l-0.71875 1.6875z" fill-rule="nonzero"/><path fill="#f3f3f3" d="m519.41455 194.54033l87.433105 0l0 82.23622l-87.433105 0z" fill-rule="evenodd"/><path stroke="#000000" stroke-width="1.0" stroke-linejoin="round" stroke-linecap="butt" d="m519.41455 194.54033l87.433105 0l0 82.23622l-87.433105 0z" fill-rule="evenodd"/><path fill="#000000" d="m556.18195 230.15656l-0.75 1.515625q-1.375 -1.03125 -2.703125 -1.03125q-2.09375 0 -3.3125 1.484375q-1.203125 1.46875 -1.203125 3.90625q0 2.3125 1.1875 3.734375q1.1875 1.40625 3.234375 1.40625q1.46875 0 2.359375 -0.875l0 -3.125l-1.84375 0l0 -1.546875l3.671875 0l0 5.8125q-0.734375 0.609375 -2.03125 1.0q-1.296875 0.375 -2.53125 0.375q-2.765625 0 -4.359375 -1.875q-1.59375 -1.875 -1.59375 -4.984375q0 -3.09375 1.75 -5.015625q1.75 -1.9375 4.734375 -1.9375q2.078125 0 3.390625 1.15625zm5.194763 7.28125l0 5.140625l-1.828125 0l0 -13.34375q2.078125 -0.09375 2.5 -0.09375q5.8125 0 5.8125 3.890625q0 4.5 -5.140625 4.5q-0.296875 0 -1.34375 -0.09375zm0 -6.5625l0 4.921875q1.15625 0.09375 1.21875 0.09375q3.390625 0 3.390625 -2.671875q0 -2.4375 -3.609375 -2.4375q-0.375 0 -1.0 0.09375zm8.57489 -1.640625l1.828125 0l0 9.140625q0 1.21875 0.765625 2.015625q0.78125 0.78125 2.0625 0.78125q1.34375 0 2.109375 -0.765625q0.78125 -0.765625 0.78125 -2.078125l0 -9.09375l1.828125 0l0 9.28125q0 2.015625 -1.265625 3.15625q-1.265625 1.140625 -3.4375 1.140625q-2.234375 0 -3.453125 -1.109375q-1.21875 -1.125 -1.21875 -3.203125l0 -9.265625z" fill-rule="nonzero"/><path fill="#000000" fill-opacity="0.0" d="m625.59644 194.54033l124.944885 0l0 82.23622l-124.944885 0z" fill-rule="evenodd"/><path fill="#0000ff" d="m635.22144 218.2597l0.75 -1.8125q1.203125 0.84375 2.375 0.84375q1.78125 0 1.78125 -1.25q0 -0.59375 -0.421875 -1.125q-0.421875 -0.53125 -1.734375 -1.1875q-1.3125 -0.65625 -1.78125 -1.078125q-0.453125 -0.4375 -0.703125 -1.015625q-0.234375 -0.59375 -0.234375 -1.296875q0 -1.328125 0.96875 -2.203125q0.96875 -0.875 2.5 -0.875q1.984375 0 2.90625 0.734375l-0.609375 1.75q-1.078125 -0.765625 -2.265625 -0.765625q-0.703125 0 -1.09375 0.375q-0.375 0.375 -0.375 0.96875q0 0.984375 2.171875 2.046875q1.15625 0.5625 1.65625 1.03125q0.515625 0.46875 0.78125 1.109375q0.265625 0.625 0.265625 1.390625q0 1.390625 -1.109375 2.296875q-1.09375 0.90625 -2.9375 0.90625q-1.59375 0 -2.890625 -0.84375zm12.3203125 1.984375q-0.3125 0.84375 -1.34375 1.390625q-1.03125 0.546875 -2.390625 0.546875l0 -1.71875q2.25 0 2.25 -1.140625q0 -0.75 -0.625 -2.296875l-2.609375 -6.5l2.015625 0l2.28125 5.78125l2.0625 -5.78125l2.015625 0l-3.65625 9.71875zm4.3203125 -1.890625l0.6875 -1.546875q0.875 0.6875 1.984375 0.6875q1.140625 0 1.140625 -0.8125q0 -0.46875 -0.34375 -0.765625q-0.34375 -0.3125 -1.34375 -0.734375q-2.15625 -0.890625 -2.15625 -2.515625q0 -1.078125 0.828125 -1.6875q0.828125 -0.609375 2.109375 -0.609375q1.3125 0 2.453125 0.59375l-0.5625 1.515625q-0.640625 -0.546875 -1.78125 -0.546875q-1.015625 0 -1.015625 0.8125q0 0.3125 0.328125 0.578125q0.34375 0.25 1.4375 0.6875q1.109375 0.4375 1.59375 1.0625q0.484375 0.609375 0.484375 1.484375q0 1.15625 -0.875 1.828125q-0.859375 0.671875 -2.34375 0.671875q-0.828125 0 -1.34375 -0.140625q-0.5 -0.140625 -1.28125 -0.5625zm7.703125 -6.25l-0.96875 0l0 -1.578125l0.96875 0l0 -1.703125l1.953125 -0.71875l0 2.421875l2.296875 0l0 1.578125l-2.296875 0l0 3.65625q0 0.90625 0.28125 1.28125q0.28125 0.359375 0.984375 0.359375q0.703125 0 1.3125 -0.375l0 1.796875q-0.6875 0.234375 -1.9375 0.234375q-1.25 0 -1.921875 -0.703125q-0.671875 -0.71875 -0.671875 -2.015625l0 -4.234375zm13.515625 3.203125l-5.984375 0q0.0625 1.0 0.6875 1.5625q0.640625 0.546875 1.703125 0.546875q1.34375 0 2.03125 -0.6875l0.765625 1.484375q-1.03125 0.84375 -3.078125 0.84375q-1.921875 0 -3.03125 -1.125q-1.109375 -1.125 -1.109375 -3.125q0 -1.984375 1.21875 -3.203125q1.21875 -1.234375 2.9375 -1.234375q1.8125 0 2.90625 1.09375q1.109375 1.078125 1.109375 2.765625q0 0.359375 -0.15625 1.078125zm-5.90625 -1.46875l4.109375 0q-0.203125 -1.828125 -2.03125 -1.828125q-1.671875 0 -2.078125 1.828125zm17.320312 5.0625l0 -5.25q0 -1.640625 -1.484375 -1.640625q-0.4375 0 -0.84375 0.265625q-0.40625 0.25 -0.5625 0.578125l0 6.046875l-1.953125 0l0 -5.546875q0 -0.625 -0.390625 -0.984375q-0.375 -0.359375 -1.078125 -0.359375q-0.359375 0 -0.796875 0.28125q-0.4375 0.265625 -0.625 0.59375l0 6.015625l-1.953125 0l0 -8.375l1.34375 0l0.390625 0.734375q0.8125 -0.890625 2.109375 -0.890625q1.65625 0 2.5 0.90625q0.375 -0.40625 1.03125 -0.65625q0.65625 -0.25 1.3125 -0.25q1.390625 0 2.171875 0.8125q0.78125 0.796875 0.78125 2.1875l0 5.53125l-1.953125 0zm8.3359375 -4.203125q0 -1.921875 1.09375 -3.125q1.109375 -1.203125 2.921875 -1.203125q1.90625 0 2.953125 1.15625q1.0625 1.15625 1.0625 3.171875q0 2.0 -1.078125 3.1875q-1.0625 1.171875 -2.9375 1.171875q-1.90625 0 -2.96875 -1.1875q-1.046875 -1.203125 -1.046875 -3.171875zm2.03125 0q0 2.765625 1.984375 2.765625q0.921875 0 1.453125 -0.71875q0.53125 -0.71875 0.53125 -2.046875q0 -2.734375 -1.984375 -2.734375q-0.90625 0 -1.453125 0.71875q-0.53125 0.71875 -0.53125 2.015625zm12.9453125 4.203125l0 -4.84375q0 -1.0625 -0.40625 -1.546875q-0.40625 -0.5 -1.34375 -0.5q-0.421875 0 -0.921875 0.25q-0.484375 0.234375 -0.75 0.59375l0 6.046875l-1.953125 0l0 -8.375l1.40625 0l0.359375 0.78125q0.796875 -0.9375 2.34375 -0.9375q1.5 0 2.359375 0.90625q0.859375 0.890625 0.859375 2.484375l0 5.140625l-1.953125 0z" fill-rule="nonzero"/><path fill="#0000ff" d="m643.61206 227.05658l-0.828125 1.6875q-0.6875 -0.6875 -2.1875 -0.6875q-1.4375 0 -2.359375 1.203125q-0.90625 1.203125 -0.90625 3.03125q0 1.84375 0.84375 2.921875q0.859375 1.078125 2.265625 1.078125q1.625 0 2.53125 -1.15625l0.953125 1.640625q-1.25 1.328125 -3.640625 1.328125q-2.40625 0 -3.734375 -1.578125q-1.328125 -1.59375 -1.328125 -4.3125q0 -2.546875 1.46875 -4.25q1.484375 -1.703125 3.78125 -1.703125q1.96875 0 3.140625 0.796875zm7.2421875 10.84375l0 -5.15625q0 -0.78125 -0.484375 -1.25q-0.484375 -0.46875 -1.265625 -0.46875q-0.484375 0 -0.984375 0.265625q-0.484375 0.265625 -0.6875 0.59375l0 6.015625l-1.984375 0l0 -11.484375l1.984375 -0.46875l0 4.109375q0.75 -0.6875 2.078125 -0.6875q1.578125 0 2.4375 0.875q0.875 0.875 0.875 2.5l0 5.15625l-1.96875 0zm5.609375 -11.609375q0.46875 0 0.796875 0.328125q0.328125 0.328125 0.328125 0.796875q0 0.46875 -0.328125 0.8125q-0.328125 0.328125 -0.796875 0.328125q-0.46875 0 -0.8125 -0.328125q-0.328125 -0.34375 -0.328125 -0.8125q0 -0.46875 0.328125 -0.796875q0.34375 -0.328125 0.8125 -0.328125zm-1.015625 11.609375l0 -6.765625l-1.0625 0l0 -1.609375l3.046875 0l0 8.375l-1.984375 0zm6.0546875 -0.21875l0 3.5l-1.953125 0l0 -11.65625l1.953125 0l0 0.5625q0.734375 -0.71875 1.796875 -0.71875q4.0 0 4.0 4.40625q0 2.0625 -1.109375 3.171875q-1.09375 1.109375 -3.015625 1.109375q-0.921875 0 -1.671875 -0.375zm0 -6.109375l0 4.40625q0.53125 0.421875 1.234375 0.421875q1.359375 0 1.9375 -0.640625q0.59375 -0.640625 0.59375 -2.03125q0 -1.484375 -0.59375 -2.09375q-0.578125 -0.609375 -1.921875 -0.609375q-0.703125 0 -1.25 0.546875z" fill-rule="nonzero"/><path fill="#000000" fill-opacity="0.0" d="m232.0596 180.57262l167.43307 0.6299286" fill-rule="evenodd"/><path stroke="#000000" stroke-width="1.0" stroke-linejoin="round" stroke-linecap="butt" stroke-dasharray="4.0,3.0" d="m232.05962 180.57263l164.006 0.61701965" fill-rule="evenodd"/><path fill="#000000" stroke="#000000" stroke-width="1.0" stroke-linecap="butt" d="m396.06558 181.18965l-1.1287842 1.1203461l3.0939636 -1.1129456l-3.0855103 -1.1362z" fill-rule="evenodd"/><path fill="#f3f3f3" d="m413.2327 291.39716l202.36221 0l0 82.236206l-202.36221 0z" fill-rule="evenodd"/><path stroke="#000000" stroke-width="1.0" stroke-linejoin="round" stroke-linecap="butt" d="m413.2327 291.39716l202.36221 0l0 82.236206l-202.36221 0z" fill-rule="evenodd"/><path fill="#000000" d="m450.22415 327.82587l0.671875 -1.671875q0.5 0.375 1.265625 0.625q0.765625 0.25 1.359375 0.25q1.0625 0 1.703125 -0.578125q0.65625 -0.59375 0.65625 -1.5q0 -0.671875 -0.359375 -1.25q-0.359375 -0.578125 -1.8125 -1.265625l-1.078125 -0.5q-1.359375 -0.625 -1.90625 -1.5q-0.53125 -0.875 -0.53125 -2.109375q0 -1.5 1.046875 -2.484375q1.0625 -0.984375 2.71875 -0.984375q2.21875 0 3.078125 0.71875l-0.53125 1.59375q-0.375 -0.265625 -1.125 -0.515625q-0.734375 -0.25 -1.375 -0.25q-0.9375 0 -1.46875 0.53125q-0.53125 0.53125 -0.53125 1.359375q0 0.515625 0.1875 0.9375q0.203125 0.40625 0.53125 0.703125q0.34375 0.28125 1.40625 0.78125l1.09375 0.515625q1.359375 0.65625 1.90625 1.5625q0.5625 0.890625 0.5625 2.265625q0 1.5 -1.203125 2.5625q-1.203125 1.046875 -3.234375 1.046875q-1.78125 0 -3.03125 -0.84375zm11.160339 0.078125l0 4.359375l-1.71875 0l0 -13.578125l1.71875 0l0 0.796875q0.984375 -0.984375 2.390625 -0.984375q2.078125 0 3.234375 1.296875q1.15625 1.296875 1.15625 3.78125q0 2.234375 -1.171875 3.640625q-1.171875 1.40625 -3.375 1.40625q-0.609375 0 -1.328125 -0.21875q-0.703125 -0.21875 -0.90625 -0.5zm0 -7.125l0 5.6875q0.171875 0.25 0.703125 0.46875q0.53125 0.21875 1.03125 0.21875q3.21875 0 3.21875 -3.640625q0 -1.84375 -0.765625 -2.703125q-0.765625 -0.859375 -2.453125 -0.859375q-0.359375 0 -0.890625 0.265625q-0.53125 0.25 -0.84375 0.5625zm16.893951 2.953125l-7.046875 0q0 1.703125 0.953125 2.625q0.828125 0.796875 2.125 0.796875q1.484375 0 2.484375 -0.859375l0.71875 1.25q-0.390625 0.40625 -1.234375 0.6875q-1.03125 0.390625 -2.3125 0.390625q-1.828125 0 -3.125 -1.25q-1.421875 -1.375 -1.421875 -3.703125q0 -2.40625 1.46875 -3.875q1.3125 -1.296875 3.109375 -1.296875q2.078125 0 3.265625 1.171875q1.140625 1.125 1.140625 3.0q0 0.578125 -0.125 1.0625zm-4.203125 -3.78125q-1.15625 0 -1.9375 0.75q-0.75 0.71875 -0.859375 1.765625l5.40625 0q0 -1.046875 -0.65625 -1.75q-0.71875 -0.765625 -1.953125 -0.765625zm13.519043 -0.484375l-0.859375 1.21875q-0.265625 -0.25 -0.9375 -0.484375q-0.671875 -0.25 -1.3125 -0.25q-1.40625 0 -2.25 1.0q-0.828125 0.984375 -0.828125 2.703125q0 1.71875 0.84375 2.609375q0.859375 0.890625 2.359375 0.890625q1.171875 0 2.359375 -0.890625l0.671875 1.453125q-1.390625 0.90625 -3.453125 0.90625q-1.984375 0 -3.296875 -1.34375q-1.296875 -1.34375 -1.296875 -3.625q0 -2.328125 1.34375 -3.734375q1.359375 -1.421875 3.703125 -1.421875q0.765625 0 1.640625 0.328125q0.890625 0.3125 1.3125 0.640625zm3.658905 -4.484375q0.453125 0 0.765625 0.328125q0.3125 0.3125 0.3125 0.75q0 0.4375 -0.3125 0.75q-0.3125 0.3125 -0.765625 0.3125q-0.4375 0 -0.75 -0.3125q-0.3125 -0.3125 -0.3125 -0.75q0 -0.453125 0.296875 -0.765625q0.3125 -0.3125 0.765625 -0.3125zm-0.953125 13.453125l0 -8.296875l-1.328125 0l0 -1.453125l3.0625 0l0 9.75l-1.734375 0zm9.991821 -1.125q-1.03125 1.3125 -3.171875 1.3125q-1.15625 0 -2.0 -0.828125q-0.828125 -0.84375 -0.828125 -2.078125q0 -1.484375 1.296875 -2.515625q1.296875 -1.03125 3.3125 -1.03125q0.546875 0 1.234375 0.25q0 -2.375 -2.109375 -2.375q-1.625 0 -2.5 0.875l-0.734375 -1.453125q0.5 -0.390625 1.359375 -0.671875q0.875 -0.296875 1.671875 -0.296875q2.125 0 3.078125 0.96875q0.96875 0.96875 0.96875 3.0625l0 3.5q0 1.28125 0.765625 1.71875l0 0.859375q-1.0625 0 -1.59375 -0.296875q-0.515625 -0.296875 -0.75 -1.0zm-0.15625 -3.671875q-0.828125 -0.171875 -1.15625 -0.171875q-1.296875 0 -2.140625 0.671875q-0.828125 0.671875 -0.828125 1.59375q0 1.515625 1.796875 1.515625q1.3125 0 2.328125 -1.25l0 -2.359375zm4.583069 2.03125l0 -10.984375l1.734375 0l0 10.703125q0 0.78125 0.453125 1.234375q0.453125 0.453125 1.1875 0.453125l0 1.546875q-3.375 0 -3.375 -2.953125zm7.158386 -10.6875q0.45315552 0 0.7656555 0.328125q0.3125 0.3125 0.3125 0.75q0 0.4375 -0.3125 0.75q-0.3125 0.3125 -0.7656555 0.3125q-0.4375 0 -0.75 -0.3125q-0.3125 -0.3125 -0.3125 -0.75q0 -0.453125 0.296875 -0.765625q0.3125 -0.3125 0.765625 -0.3125zm-0.953125 13.453125l0 -8.296875l-1.328125 0l0 -1.453125l3.0625305 0l0 9.75l-1.7344055 0zm6.335602 -1.546875l5.40625 0l0 1.546875l-8.125 0l0 -0.453125l5.546875 -7.75l-5.453125 0l0 -1.546875l7.984375 0l0 0.484375l-5.359375 7.71875zm15.229431 -3.15625l-7.046875 0q0 1.703125 0.953125 2.625q0.828125 0.796875 2.125 0.796875q1.484375 0 2.484375 -0.859375l0.71875 1.25q-0.390625 0.40625 -1.234375 0.6875q-1.03125 0.390625 -2.3125 0.390625q-1.828125 0 -3.125 -1.25q-1.421875 -1.375 -1.421875 -3.703125q0 -2.40625 1.46875 -3.875q1.3125 -1.296875 3.109375 -1.296875q2.078125 0 3.265625 1.171875q1.140625 1.125 1.140625 3.0q0 0.578125 -0.125 1.0625zm-4.203125 -3.78125q-1.15625 0 -1.9375 0.75q-0.75 0.71875 -0.859375 1.765625l5.40625 0q0 -1.046875 -0.65625 -1.75q-0.71875 -0.765625 -1.953125 -0.765625zm12.347168 8.46875l0 -0.71875q-0.90625 0.90625 -2.625 0.90625q-1.84375 0 -2.984375 -1.3125q-1.125 -1.3125 -1.125 -3.5q0 -2.1875 1.3125 -3.734375q1.3125 -1.5625 3.125 -1.5625q1.5 0 2.296875 0.703125l0 -4.515625l1.71875 0l0 13.734375l-1.71875 0zm0 -7.484375q-0.65625 -0.984375 -1.796875 -0.984375q-1.390625 0 -2.265625 1.046875q-0.859375 1.03125 -0.859375 2.640625q0 3.515625 3.21875 3.515625q0.40625 0 0.96875 -0.25q0.578125 -0.265625 0.734375 -0.5625l0 -5.40625zm9.358215 6.890625l0.671875 -1.671875q0.5 0.375 1.265625 0.625q0.765625 0.25 1.359375 0.25q1.0625 0 1.703125 -0.578125q0.65625 -0.59375 0.65625 -1.5q0 -0.671875 -0.359375 -1.25q-0.359375 -0.578125 -1.8125 -1.265625l-1.078125 -0.5q-1.359375 -0.625 -1.90625 -1.5q-0.53125 -0.875 -0.53125 -2.109375q0 -1.5 1.046875 -2.484375q1.0625 -0.984375 2.71875 -0.984375q2.21875 0 3.078125 0.71875l-0.53125 1.59375q-0.375 -0.265625 -1.125 -0.515625q-0.734375 -0.25 -1.375 -0.25q-0.9375 0 -1.46875 0.53125q-0.53125 0.53125 -0.53125 1.359375q0 0.515625 0.1875 0.9375q0.203125 0.40625 0.53125 0.703125q0.34375 0.28125 1.40625 0.78125l1.09375 0.515625q1.359375 0.65625 1.90625 1.5625q0.5625 0.890625 0.5625 2.265625q0 1.5 -1.203125 2.5625q-1.203125 1.046875 -3.234375 1.046875q-1.78125 0 -3.03125 -0.84375zm8.801025 -4.296875q0 -2.25 1.21875 -3.640625q1.21875 -1.390625 3.203125 -1.390625q2.09375 0 3.25 1.34375q1.15625 1.328125 1.15625 3.6875q0 2.359375 -1.1875 3.734375q-1.1875 1.359375 -3.21875 1.359375q-2.09375 0 -3.265625 -1.375q-1.15625 -1.375 -1.15625 -3.71875zm1.8125 0q0 3.671875 2.609375 3.671875q1.203125 0 1.890625 -0.984375q0.6875 -0.984375 0.6875 -2.6875q0 -3.625 -2.578125 -3.625q-1.1875 0 -1.90625 0.96875q-0.703125 0.96875 -0.703125 2.65625zm17.495667 -7.953125l-0.609375 1.5625q-0.875 -0.640625 -2.765625 -0.640625q-1.75 0 -2.8125 1.515625q-1.0625 1.515625 -1.0625 3.90625q0 2.265625 1.078125 3.6875q1.09375 1.421875 2.828125 1.421875q1.875 0 2.875 -1.328125l1.015625 1.390625q-1.59375 1.578125 -4.09375 1.578125q-2.609375 0 -4.109375 -1.890625q-1.5 -1.890625 -1.5 -4.96875q0 -3.0 1.59375 -4.96875q1.609375 -1.984375 4.15625 -1.984375q2.171875 0 3.40625 0.71875z" fill-rule="nonzero"/><path fill="#000000" d="m477.59308 336.99774l0 0.75q-1.796875 2.609375 -1.796875 7.609375q0 5.9375 1.796875 8.015625l0 0.96875q-1.828125 -1.296875 -2.84375 -3.703125q-1.015625 -2.390625 -1.015625 -5.296875q0 -2.46875 1.15625 -5.0q1.15625 -2.53125 2.703125 -3.34375zm1.9597168 6.65625q0 -2.90625 1.453125 -4.84375q1.453125 -1.953125 3.921875 -1.953125q2.765625 0 4.25 1.796875q1.484375 1.78125 1.484375 5.0q0 3.28125 -1.484375 5.15625q-1.484375 1.859375 -4.25 1.859375q-2.53125 0 -3.953125 -1.96875q-1.421875 -1.96875 -1.421875 -5.046875zm1.90625 0q0 2.296875 0.90625 3.84375q0.90625 1.53125 2.5625 1.53125q1.859375 0 2.828125 -1.40625q0.984375 -1.421875 0.984375 -3.96875q0 -5.15625 -3.8125 -5.15625q-1.703125 0 -2.59375 1.390625q-0.875 1.375 -0.875 3.765625zm12.883606 6.25l0 4.359375l-1.71875 0l0 -13.578125l1.71875 0l0 0.796875q0.984375 -0.984375 2.390625 -0.984375q2.078125 0 3.234375 1.296875q1.15625 1.296875 1.15625 3.78125q0 2.234375 -1.171875 3.640625q-1.171875 1.40625 -3.375 1.40625q-0.609375 0 -1.328125 -0.21875q-0.703125 -0.21875 -0.90625 -0.5zm0 -7.125l0 5.6875q0.171875 0.25 0.703125 0.46875q0.53125 0.21875 1.03125 0.21875q3.21875 0 3.21875 -3.640625q0 -1.84375 -0.765625 -2.703125q-0.765625 -0.859375 -2.453125 -0.859375q-0.359375 0 -0.890625 0.265625q-0.53125 0.25 -0.84375 0.5625zm9.284576 -0.734375l-1.125 0l0 -1.359375l1.125 0l0 -2.046875l1.734375 -0.671875l0 2.71875l2.6875 0l0 1.359375l-2.6875 0l0 4.84375q0 1.234375 0.40625 1.75q0.421875 0.515625 1.34375 0.515625q0.671875 0 1.375 -0.328125l0.25 1.515625q-1.0625 0.28125 -2.359375 0.28125q-1.15625 0 -1.953125 -0.859375q-0.796875 -0.875 -0.796875 -2.171875l0 -5.546875zm8.568756 -5.0625q0.453125 0 0.765625 0.328125q0.3125 0.3125 0.3125 0.75q0 0.4375 -0.3125 0.75q-0.3125 0.3125 -0.765625 0.3125q-0.43746948 0 -0.7499695 -0.3125q-0.3125 -0.3125 -0.3125 -0.75q0 -0.453125 0.296875 -0.765625q0.3125 -0.3125 0.7655945 -0.3125zm-0.9530945 13.453125l0 -8.296875l-1.328125 0l0 -1.453125l3.0624695 0l0 9.75l-1.7343445 0zm3.8511658 -4.90625q0 -2.25 1.21875 -3.640625q1.21875 -1.390625 3.203125 -1.390625q2.09375 0 3.25 1.34375q1.15625 1.328125 1.15625 3.6875q0 2.359375 -1.1875 3.734375q-1.1875 1.359375 -3.21875 1.359375q-2.09375 0 -3.265625 -1.375q-1.15625 -1.375 -1.15625 -3.71875zm1.8125 0q0 3.671875 2.609375 3.671875q1.203125 0 1.890625 -0.984375q0.6875 -0.984375 0.6875 -2.6875q0 -3.625 -2.578125 -3.625q-1.1875 0 -1.90625 0.96875q-0.703125 0.96875 -0.703125 2.65625zm14.839478 4.90625l0 -5.671875q0 -1.5625 -0.46875 -2.1875q-0.46875 -0.625 -1.578125 -0.625q-0.59375 0 -1.234375 0.359375q-0.640625 0.359375 -1.0 0.875l0 7.25l-1.71875 0l0 -9.75l1.171875 0l0.546875 1.25q0.859375 -1.4375 2.796875 -1.4375q3.21875 0 3.21875 3.890625l0 6.046875l-1.734375 0zm9.6935425 -1.125q-1.03125 1.3125 -3.171875 1.3125q-1.15625 0 -2.0 -0.828125q-0.828125 -0.84375 -0.828125 -2.078125q0 -1.484375 1.296875 -2.515625q1.296875 -1.03125 3.3125 -1.03125q0.546875 0 1.234375 0.25q0 -2.375 -2.109375 -2.375q-1.625 0 -2.5 0.875l-0.734375 -1.453125q0.5 -0.390625 1.359375 -0.671875q0.875 -0.296875 1.671875 -0.296875q2.125 0 3.078125 0.96875q0.96875 0.96875 0.96875 3.0625l0 3.5q0 1.28125 0.765625 1.71875l0 0.859375q-1.0625 0 -1.59375 -0.296875q-0.515625 -0.296875 -0.75 -1.0zm-0.15625 -3.671875q-0.828125 -0.171875 -1.15625 -0.171875q-1.296875 0 -2.140625 0.671875q-0.828125 0.671875 -0.828125 1.59375q0 1.515625 1.796875 1.515625q1.3125 0 2.328125 -1.25l0 -2.359375zm4.583069 2.03125l0 -10.984375l1.734375 0l0 10.703125q0 0.78125 0.453125 1.234375q0.453125 0.453125 1.1875 0.453125l0 1.546875q-3.375 0 -3.375 -2.953125zm5.908386 6.671875l0 -0.96875q1.796875 -2.078125 1.796875 -8.015625q0 -5.0 -1.796875 -7.609375l0 -0.75q1.546875 0.8125 2.703125 3.34375q1.15625 2.53125 1.15625 5.0q0 2.90625 -1.015625 5.296875q-1.015625 2.40625 -2.84375 3.703125z" fill-rule="nonzero"/></g></svg>