<svg width="736" height="171" viewBox="0 0 736 171" fill="none" xmlns="http://www.w3.org/2000/svg">
<rect opacity="0.5" x="485" width="251" height="171" rx="4" fill="#D7EFFE"/>
<path d="M499.35 148.83V152H497.867V143.469H501.131C502.084 143.469 502.84 143.717 503.398 144.213C503.961 144.709 504.242 145.365 504.242 146.182C504.242 147.018 503.967 147.668 503.416 148.133C502.869 148.598 502.102 148.83 501.113 148.83H499.35ZM499.35 147.641H501.131C501.658 147.641 502.061 147.518 502.338 147.271C502.615 147.021 502.754 146.662 502.754 146.193C502.754 145.732 502.613 145.365 502.332 145.092C502.051 144.814 501.664 144.672 501.172 144.664H499.35V147.641ZM507.025 150.816H510.898V152H505.543V143.469H507.025V150.816ZM516.928 150.014H513.623L512.932 152H511.391L514.613 143.469H515.943L519.172 152H517.625L516.928 150.014ZM514.039 148.818H516.512L515.275 145.279L514.039 148.818ZM525.605 144.664H522.945V152H521.475V144.664H518.838V143.469H525.605V144.664ZM531.646 148.385H528.213V152H526.73V143.469H532.15V144.664H528.213V147.201H531.646V148.385ZM540.137 147.957C540.137 148.793 539.992 149.527 539.703 150.16C539.414 150.789 539 151.273 538.461 151.613C537.926 151.949 537.309 152.117 536.609 152.117C535.918 152.117 535.301 151.949 534.758 151.613C534.219 151.273 533.801 150.791 533.504 150.166C533.211 149.541 533.062 148.82 533.059 148.004V147.523C533.059 146.691 533.205 145.957 533.498 145.32C533.795 144.684 534.211 144.197 534.746 143.861C535.285 143.521 535.902 143.352 536.598 143.352C537.293 143.352 537.908 143.52 538.443 143.855C538.982 144.188 539.398 144.668 539.691 145.297C539.984 145.922 540.133 146.65 540.137 147.482V147.957ZM538.654 147.512C538.654 146.566 538.475 145.842 538.115 145.338C537.76 144.834 537.254 144.582 536.598 144.582C535.957 144.582 535.455 144.834 535.092 145.338C534.732 145.838 534.549 146.547 534.541 147.465V147.957C534.541 148.895 534.723 149.619 535.086 150.131C535.453 150.643 535.961 150.898 536.609 150.898C537.266 150.898 537.77 150.648 538.121 150.148C538.477 149.648 538.654 148.918 538.654 147.957V147.512ZM544.748 148.713H543.096V152H541.613V143.469H544.613C545.598 143.469 546.357 143.689 546.893 144.131C547.428 144.572 547.695 145.211 547.695 146.047C547.695 146.617 547.557 147.096 547.279 147.482C547.006 147.865 546.623 148.16 546.131 148.367L548.047 151.924V152H546.459L544.748 148.713ZM543.096 147.523H544.619C545.119 147.523 545.51 147.398 545.791 147.148C546.072 146.895 546.213 146.549 546.213 146.111C546.213 145.654 546.082 145.301 545.82 145.051C545.562 144.801 545.176 144.672 544.66 144.664H543.096V147.523ZM551.023 143.469L553.484 150.008L555.939 143.469H557.855V152H556.379V149.188L556.525 145.426L554.006 152H552.945L550.432 145.432L550.578 149.188V152H549.102V143.469H551.023ZM567.061 149.803C567.061 149.428 566.928 149.139 566.662 148.936C566.4 148.732 565.926 148.527 565.238 148.32C564.551 148.113 564.004 147.883 563.598 147.629C562.82 147.141 562.432 146.504 562.432 145.719C562.432 145.031 562.711 144.465 563.27 144.02C563.832 143.574 564.561 143.352 565.455 143.352C566.049 143.352 566.578 143.461 567.043 143.68C567.508 143.898 567.873 144.211 568.139 144.617C568.404 145.02 568.537 145.467 568.537 145.959H567.061C567.061 145.514 566.92 145.166 566.639 144.916C566.361 144.662 565.963 144.535 565.443 144.535C564.959 144.535 564.582 144.639 564.312 144.846C564.047 145.053 563.914 145.342 563.914 145.713C563.914 146.025 564.059 146.287 564.348 146.498C564.637 146.705 565.113 146.908 565.777 147.107C566.441 147.303 566.975 147.527 567.377 147.781C567.779 148.031 568.074 148.32 568.262 148.648C568.449 148.973 568.543 149.354 568.543 149.791C568.543 150.502 568.27 151.068 567.723 151.49C567.18 151.908 566.441 152.117 565.508 152.117C564.891 152.117 564.322 152.004 563.803 151.777C563.287 151.547 562.885 151.23 562.596 150.828C562.311 150.426 562.168 149.957 562.168 149.422H563.65C563.65 149.906 563.811 150.281 564.131 150.547C564.451 150.812 564.91 150.945 565.508 150.945C566.023 150.945 566.41 150.842 566.668 150.635C566.93 150.424 567.061 150.146 567.061 149.803ZM576.008 144.664H573.348V152H571.877V144.664H569.24V143.469H576.008V144.664ZM581.205 150.014H577.9L577.209 152H575.668L578.891 143.469H580.221L583.449 152H581.902L581.205 150.014ZM578.316 148.818H580.789L579.553 145.279L578.316 148.818ZM584.422 152V143.469H587.346C588.311 143.469 589.045 143.662 589.549 144.049C590.053 144.436 590.305 145.012 590.305 145.777C590.305 146.168 590.199 146.52 589.988 146.832C589.777 147.145 589.469 147.387 589.062 147.559C589.523 147.684 589.879 147.92 590.129 148.268C590.383 148.611 590.51 149.025 590.51 149.51C590.51 150.311 590.252 150.926 589.736 151.355C589.225 151.785 588.49 152 587.533 152H584.422ZM585.904 148.15V150.816H587.551C588.016 150.816 588.379 150.701 588.641 150.471C588.902 150.24 589.033 149.92 589.033 149.51C589.033 148.623 588.58 148.17 587.674 148.15H585.904ZM585.904 147.061H587.357C587.818 147.061 588.178 146.957 588.436 146.75C588.697 146.539 588.828 146.242 588.828 145.859C588.828 145.438 588.707 145.133 588.465 144.945C588.227 144.758 587.854 144.664 587.346 144.664H585.904V147.061ZM593.557 152H592.08V143.469H593.557V152ZM596.861 150.816H600.734V152H595.379V143.469H596.861V150.816ZM603.436 152H601.959V143.469H603.436V152ZM611.246 144.664H608.586V152H607.115V144.664H604.479V143.469H611.246V144.664ZM615.248 147.512L617.211 143.469H618.852L615.992 148.859V152H614.504V148.859L611.639 143.469H613.285L615.248 147.512Z" fill="#073042"/>
<path d="M59.8125 28V16.625H63.0234C64.013 16.625 64.888 16.8438 65.6484 17.2812C66.4089 17.7188 66.9948 18.3411 67.4062 19.1484C67.8229 19.9557 68.0339 20.8828 68.0391 21.9297V22.6562C68.0391 23.7292 67.8307 24.6693 67.4141 25.4766C67.0026 26.2839 66.4115 26.9036 65.6406 27.3359C64.875 27.7682 63.9818 27.9896 62.9609 28H59.8125ZM61.3125 17.8594V26.7734H62.8906C64.0469 26.7734 64.9453 26.4141 65.5859 25.6953C66.2318 24.9766 66.5547 23.9531 66.5547 22.625V21.9609C66.5547 20.6693 66.25 19.6667 65.6406 18.9531C65.0365 18.2344 64.1771 17.8698 63.0625 17.8594H61.3125ZM73.5938 28.1562C72.4479 28.1562 71.5156 27.7812 70.7969 27.0312C70.0781 26.276 69.7188 25.2682 69.7188 24.0078V23.7422C69.7188 22.9036 69.8776 22.1562 70.1953 21.5C70.5182 20.8385 70.9661 20.3229 71.5391 19.9531C72.1172 19.5781 72.7422 19.3906 73.4141 19.3906C74.513 19.3906 75.3672 19.7526 75.9766 20.4766C76.5859 21.2005 76.8906 22.237 76.8906 23.5859V24.1875H71.1641C71.1849 25.0208 71.4271 25.6953 71.8906 26.2109C72.3594 26.7214 72.9531 26.9766 73.6719 26.9766C74.1823 26.9766 74.6146 26.8724 74.9688 26.6641C75.3229 26.4557 75.6328 26.1797 75.8984 25.8359L76.7812 26.5234C76.0729 27.612 75.0104 28.1562 73.5938 28.1562ZM73.4141 20.5781C72.8307 20.5781 72.3411 20.7917 71.9453 21.2188C71.5495 21.6406 71.3047 22.2344 71.2109 23H75.4453V22.8906C75.4036 22.1562 75.2057 21.5885 74.8516 21.1875C74.4974 20.7812 74.0182 20.5781 73.4141 20.5781ZM81.25 26.0391L83.3438 19.5469H84.8203L81.7891 28H80.6875L77.625 19.5469H79.1016L81.25 26.0391ZM89.6094 28.1562C88.4635 28.1562 87.5312 27.7812 86.8125 27.0312C86.0938 26.276 85.7344 25.2682 85.7344 24.0078V23.7422C85.7344 22.9036 85.8932 22.1562 86.2109 21.5C86.5339 20.8385 86.9818 20.3229 87.5547 19.9531C88.1328 19.5781 88.7578 19.3906 89.4297 19.3906C90.5286 19.3906 91.3828 19.7526 91.9922 20.4766C92.6016 21.2005 92.9062 22.237 92.9062 23.5859V24.1875H87.1797C87.2005 25.0208 87.4427 25.6953 87.9062 26.2109C88.375 26.7214 88.9688 26.9766 89.6875 26.9766C90.1979 26.9766 90.6302 26.8724 90.9844 26.6641C91.3385 26.4557 91.6484 26.1797 91.9141 25.8359L92.7969 26.5234C92.0885 27.612 91.026 28.1562 89.6094 28.1562ZM89.4297 20.5781C88.8464 20.5781 88.3568 20.7917 87.9609 21.2188C87.5651 21.6406 87.3203 22.2344 87.2266 23H91.4609V22.8906C91.4193 22.1562 91.2214 21.5885 90.8672 21.1875C90.513 20.7812 90.0339 20.5781 89.4297 20.5781ZM96.1562 28H94.7109V16H96.1562V28ZM98.0938 23.6953C98.0938 22.8672 98.2552 22.1224 98.5781 21.4609C98.9062 20.7995 99.3594 20.2891 99.9375 19.9297C100.521 19.5703 101.185 19.3906 101.93 19.3906C103.081 19.3906 104.01 19.7891 104.719 20.5859C105.432 21.3828 105.789 22.4427 105.789 23.7656V23.8672C105.789 24.6901 105.63 25.4297 105.312 26.0859C105 26.737 104.549 27.2448 103.961 27.6094C103.378 27.974 102.706 28.1562 101.945 28.1562C100.799 28.1562 99.8698 27.7578 99.1562 26.9609C98.4479 26.1641 98.0938 25.1094 98.0938 23.7969V23.6953ZM99.5469 23.8672C99.5469 24.8047 99.763 25.5573 100.195 26.125C100.633 26.6927 101.216 26.9766 101.945 26.9766C102.68 26.9766 103.263 26.6901 103.695 26.1172C104.128 25.5391 104.344 24.7318 104.344 23.6953C104.344 22.7682 104.122 22.0182 103.68 21.4453C103.242 20.8672 102.659 20.5781 101.93 20.5781C101.216 20.5781 100.641 20.862 100.203 21.4297C99.7656 21.9974 99.5469 22.8099 99.5469 23.8672ZM114.742 23.8672C114.742 25.1536 114.448 26.1901 113.859 26.9766C113.271 27.763 112.474 28.1562 111.469 28.1562C110.443 28.1562 109.635 27.8307 109.047 27.1797V31.25H107.602V19.5469H108.922L108.992 20.4844C109.581 19.7552 110.398 19.3906 111.445 19.3906C112.461 19.3906 113.263 19.7734 113.852 20.5391C114.445 21.3047 114.742 22.3698 114.742 23.7344V23.8672ZM113.297 23.7031C113.297 22.75 113.094 21.9974 112.688 21.4453C112.281 20.8932 111.724 20.6172 111.016 20.6172C110.141 20.6172 109.484 21.0052 109.047 21.7812V25.8203C109.479 26.5911 110.141 26.9766 111.031 26.9766C111.724 26.9766 112.273 26.7031 112.68 26.1562C113.091 25.6042 113.297 24.7865 113.297 23.7031ZM120.094 28.1562C118.948 28.1562 118.016 27.7812 117.297 27.0312C116.578 26.276 116.219 25.2682 116.219 24.0078V23.7422C116.219 22.9036 116.378 22.1562 116.695 21.5C117.018 20.8385 117.466 20.3229 118.039 19.9531C118.617 19.5781 119.242 19.3906 119.914 19.3906C121.013 19.3906 121.867 19.7526 122.477 20.4766C123.086 21.2005 123.391 22.237 123.391 23.5859V24.1875H117.664C117.685 25.0208 117.927 25.6953 118.391 26.2109C118.859 26.7214 119.453 26.9766 120.172 26.9766C120.682 26.9766 121.115 26.8724 121.469 26.6641C121.823 26.4557 122.133 26.1797 122.398 25.8359L123.281 26.5234C122.573 27.612 121.51 28.1562 120.094 28.1562ZM119.914 20.5781C119.331 20.5781 118.841 20.7917 118.445 21.2188C118.049 21.6406 117.805 22.2344 117.711 23H121.945V22.8906C121.904 22.1562 121.706 21.5885 121.352 21.1875C120.997 20.7812 120.518 20.5781 119.914 20.5781ZM129.156 20.8438C128.938 20.8073 128.701 20.7891 128.445 20.7891C127.497 20.7891 126.854 21.1927 126.516 22V28H125.07V19.5469H126.477L126.5 20.5234C126.974 19.7682 127.646 19.3906 128.516 19.3906C128.797 19.3906 129.01 19.4271 129.156 19.5V20.8438ZM136.188 23.5469V28H134.688V16.625H138.883C140.128 16.625 141.102 16.9427 141.805 17.5781C142.513 18.2135 142.867 19.0547 142.867 20.1016C142.867 21.2057 142.521 22.0573 141.828 22.6562C141.141 23.25 140.154 23.5469 138.867 23.5469H136.188ZM136.188 22.3203H138.883C139.685 22.3203 140.299 22.1328 140.727 21.7578C141.154 21.3776 141.367 20.8307 141.367 20.1172C141.367 19.4401 141.154 18.8984 140.727 18.4922C140.299 18.0859 139.714 17.875 138.969 17.8594H136.188V22.3203ZM148.641 20.8438C148.422 20.8073 148.185 20.7891 147.93 20.7891C146.982 20.7891 146.339 21.1927 146 22V28H144.555V19.5469H145.961L145.984 20.5234C146.458 19.7682 147.13 19.3906 148 19.3906C148.281 19.3906 148.495 19.4271 148.641 19.5V20.8438ZM153.328 28.1562C152.182 28.1562 151.25 27.7812 150.531 27.0312C149.812 26.276 149.453 25.2682 149.453 24.0078V23.7422C149.453 22.9036 149.612 22.1562 149.93 21.5C150.253 20.8385 150.701 20.3229 151.273 19.9531C151.852 19.5781 152.477 19.3906 153.148 19.3906C154.247 19.3906 155.102 19.7526 155.711 20.4766C156.32 21.2005 156.625 22.237 156.625 23.5859V24.1875H150.898C150.919 25.0208 151.161 25.6953 151.625 26.2109C152.094 26.7214 152.688 26.9766 153.406 26.9766C153.917 26.9766 154.349 26.8724 154.703 26.6641C155.057 26.4557 155.367 26.1797 155.633 25.8359L156.516 26.5234C155.807 27.612 154.745 28.1562 153.328 28.1562ZM153.148 20.5781C152.565 20.5781 152.076 20.7917 151.68 21.2188C151.284 21.6406 151.039 22.2344 150.945 23H155.18V22.8906C155.138 22.1562 154.94 21.5885 154.586 21.1875C154.232 20.7812 153.753 20.5781 153.148 20.5781ZM160.984 26.0391L163.078 19.5469H164.555L161.523 28H160.422L157.359 19.5469H158.836L160.984 26.0391ZM167.516 28H166.07V19.5469H167.516V28ZM165.953 17.3047C165.953 17.0703 166.023 16.8724 166.164 16.7109C166.31 16.5495 166.523 16.4688 166.805 16.4688C167.086 16.4688 167.299 16.5495 167.445 16.7109C167.591 16.8724 167.664 17.0703 167.664 17.3047C167.664 17.5391 167.591 17.7344 167.445 17.8906C167.299 18.0469 167.086 18.125 166.805 18.125C166.523 18.125 166.31 18.0469 166.164 17.8906C166.023 17.7344 165.953 17.5391 165.953 17.3047ZM173.344 28.1562C172.198 28.1562 171.266 27.7812 170.547 27.0312C169.828 26.276 169.469 25.2682 169.469 24.0078V23.7422C169.469 22.9036 169.628 22.1562 169.945 21.5C170.268 20.8385 170.716 20.3229 171.289 19.9531C171.867 19.5781 172.492 19.3906 173.164 19.3906C174.263 19.3906 175.117 19.7526 175.727 20.4766C176.336 21.2005 176.641 22.237 176.641 23.5859V24.1875H170.914C170.935 25.0208 171.177 25.6953 171.641 26.2109C172.109 26.7214 172.703 26.9766 173.422 26.9766C173.932 26.9766 174.365 26.8724 174.719 26.6641C175.073 26.4557 175.383 26.1797 175.648 25.8359L176.531 26.5234C175.823 27.612 174.76 28.1562 173.344 28.1562ZM173.164 20.5781C172.581 20.5781 172.091 20.7917 171.695 21.2188C171.299 21.6406 171.055 22.2344 170.961 23H175.195V22.8906C175.154 22.1562 174.956 21.5885 174.602 21.1875C174.247 20.7812 173.768 20.5781 173.164 20.5781ZM185.805 26.0078L187.43 19.5469H188.875L186.414 28H185.242L183.188 21.5938L181.188 28H180.016L177.562 19.5469H179L180.664 25.875L182.633 19.5469H183.797L185.805 26.0078ZM195.273 25.7578C195.273 25.3672 195.125 25.0651 194.828 24.8516C194.536 24.6328 194.023 24.4453 193.289 24.2891C192.56 24.1328 191.979 23.9453 191.547 23.7266C191.12 23.5078 190.802 23.2474 190.594 22.9453C190.391 22.6432 190.289 22.2839 190.289 21.8672C190.289 21.1745 190.581 20.5885 191.164 20.1094C191.753 19.6302 192.503 19.3906 193.414 19.3906C194.372 19.3906 195.148 19.638 195.742 20.1328C196.341 20.6276 196.641 21.2604 196.641 22.0312H195.188C195.188 21.6354 195.018 21.2943 194.68 21.0078C194.346 20.7214 193.924 20.5781 193.414 20.5781C192.888 20.5781 192.477 20.6927 192.18 20.9219C191.883 21.151 191.734 21.4505 191.734 21.8203C191.734 22.1693 191.872 22.4323 192.148 22.6094C192.424 22.7865 192.922 22.9557 193.641 23.1172C194.365 23.2786 194.951 23.4714 195.398 23.6953C195.846 23.9193 196.177 24.1901 196.391 24.5078C196.609 24.8203 196.719 25.2031 196.719 25.6562C196.719 26.4115 196.417 27.0182 195.812 27.4766C195.208 27.9297 194.424 28.1562 193.461 28.1562C192.784 28.1562 192.185 28.0365 191.664 27.7969C191.143 27.5573 190.734 27.224 190.438 26.7969C190.146 26.3646 190 25.8984 190 25.3984H191.445C191.471 25.8828 191.664 26.2682 192.023 26.5547C192.388 26.8359 192.867 26.9766 193.461 26.9766C194.008 26.9766 194.445 26.8672 194.773 26.6484C195.107 26.4245 195.273 26.1276 195.273 25.7578Z" fill="#F86734"/>
<path d="M371.438 28V16.625H375.156C376.391 16.625 377.318 16.8802 377.938 17.3906C378.562 17.901 378.875 18.6562 378.875 19.6562C378.875 20.1875 378.724 20.6589 378.422 21.0703C378.12 21.4766 377.708 21.7917 377.188 22.0156C377.802 22.1875 378.286 22.5156 378.641 23C379 23.4792 379.18 24.0521 379.18 24.7188C379.18 25.7396 378.849 26.5417 378.188 27.125C377.526 27.7083 376.591 28 375.383 28H371.438ZM372.938 22.6797V26.7734H375.414C376.112 26.7734 376.661 26.5938 377.062 26.2344C377.469 25.8698 377.672 25.3698 377.672 24.7344C377.672 23.3646 376.927 22.6797 375.438 22.6797H372.938ZM372.938 21.4766H375.203C375.859 21.4766 376.383 21.3125 376.773 20.9844C377.169 20.6562 377.367 20.2109 377.367 19.6484C377.367 19.0234 377.185 18.5703 376.82 18.2891C376.456 18.0026 375.901 17.8594 375.156 17.8594H372.938V21.4766ZM384.688 28.1562C383.542 28.1562 382.609 27.7812 381.891 27.0312C381.172 26.276 380.812 25.2682 380.812 24.0078V23.7422C380.812 22.9036 380.971 22.1562 381.289 21.5C381.612 20.8385 382.06 20.3229 382.633 19.9531C383.211 19.5781 383.836 19.3906 384.508 19.3906C385.607 19.3906 386.461 19.7526 387.07 20.4766C387.68 21.2005 387.984 22.237 387.984 23.5859V24.1875H382.258C382.279 25.0208 382.521 25.6953 382.984 26.2109C383.453 26.7214 384.047 26.9766 384.766 26.9766C385.276 26.9766 385.708 26.8724 386.062 26.6641C386.417 26.4557 386.727 26.1797 386.992 25.8359L387.875 26.5234C387.167 27.612 386.104 28.1562 384.688 28.1562ZM384.508 20.5781C383.924 20.5781 383.435 20.7917 383.039 21.2188C382.643 21.6406 382.398 22.2344 382.305 23H386.539V22.8906C386.497 22.1562 386.299 21.5885 385.945 21.1875C385.591 20.7812 385.112 20.5781 384.508 20.5781ZM391.625 17.5V19.5469H393.203V20.6641H391.625V25.9062C391.625 26.2448 391.695 26.5 391.836 26.6719C391.977 26.8385 392.216 26.9219 392.555 26.9219C392.721 26.9219 392.951 26.8906 393.242 26.8281V28C392.862 28.1042 392.492 28.1562 392.133 28.1562C391.487 28.1562 391 27.9609 390.672 27.5703C390.344 27.1797 390.18 26.625 390.18 25.9062V20.6641H388.641V19.5469H390.18V17.5H391.625ZM400.117 28C400.034 27.8333 399.966 27.5365 399.914 27.1094C399.242 27.8073 398.44 28.1562 397.508 28.1562C396.674 28.1562 395.99 27.9219 395.453 27.4531C394.922 26.9792 394.656 26.3802 394.656 25.6562C394.656 24.776 394.99 24.0938 395.656 23.6094C396.328 23.1198 397.271 22.875 398.484 22.875H399.891V22.2109C399.891 21.7057 399.74 21.3047 399.438 21.0078C399.135 20.7057 398.69 20.5547 398.102 20.5547C397.586 20.5547 397.154 20.6849 396.805 20.9453C396.456 21.2057 396.281 21.5208 396.281 21.8906H394.828C394.828 21.4688 394.977 21.0625 395.273 20.6719C395.576 20.276 395.982 19.9635 396.492 19.7344C397.008 19.5052 397.573 19.3906 398.188 19.3906C399.161 19.3906 399.924 19.6354 400.477 20.125C401.029 20.6094 401.315 21.2786 401.336 22.1328V26.0234C401.336 26.7995 401.435 27.4167 401.633 27.875V28H400.117ZM397.719 26.8984C398.172 26.8984 398.602 26.7812 399.008 26.5469C399.414 26.3125 399.708 26.0078 399.891 25.6328V23.8984H398.758C396.987 23.8984 396.102 24.4167 396.102 25.4531C396.102 25.9062 396.253 26.2604 396.555 26.5156C396.857 26.7708 397.245 26.8984 397.719 26.8984ZM411.969 23.3984H409.297V28H407.789V16.625H411.555C412.836 16.625 413.82 16.9167 414.508 17.5C415.201 18.0833 415.547 18.9323 415.547 20.0469C415.547 20.7552 415.354 21.3724 414.969 21.8984C414.589 22.4245 414.057 22.8177 413.375 23.0781L416.047 27.9062V28H414.438L411.969 23.3984ZM409.297 22.1719H411.602C412.346 22.1719 412.938 21.9792 413.375 21.5938C413.818 21.2083 414.039 20.6927 414.039 20.0469C414.039 19.3438 413.828 18.8047 413.406 18.4297C412.99 18.0547 412.385 17.8646 411.594 17.8594H409.297V22.1719ZM420.938 28.1562C419.792 28.1562 418.859 27.7812 418.141 27.0312C417.422 26.276 417.062 25.2682 417.062 24.0078V23.7422C417.062 22.9036 417.221 22.1562 417.539 21.5C417.862 20.8385 418.31 20.3229 418.883 19.9531C419.461 19.5781 420.086 19.3906 420.758 19.3906C421.857 19.3906 422.711 19.7526 423.32 20.4766C423.93 21.2005 424.234 22.237 424.234 23.5859V24.1875H418.508C418.529 25.0208 418.771 25.6953 419.234 26.2109C419.703 26.7214 420.297 26.9766 421.016 26.9766C421.526 26.9766 421.958 26.8724 422.312 26.6641C422.667 26.4557 422.977 26.1797 423.242 25.8359L424.125 26.5234C423.417 27.612 422.354 28.1562 420.938 28.1562ZM420.758 20.5781C420.174 20.5781 419.685 20.7917 419.289 21.2188C418.893 21.6406 418.648 22.2344 418.555 23H422.789V22.8906C422.747 22.1562 422.549 21.5885 422.195 21.1875C421.841 20.7812 421.362 20.5781 420.758 20.5781ZM427.484 28H426.039V16H427.484V28ZM433.312 28.1562C432.167 28.1562 431.234 27.7812 430.516 27.0312C429.797 26.276 429.438 25.2682 429.438 24.0078V23.7422C429.438 22.9036 429.596 22.1562 429.914 21.5C430.237 20.8385 430.685 20.3229 431.258 19.9531C431.836 19.5781 432.461 19.3906 433.133 19.3906C434.232 19.3906 435.086 19.7526 435.695 20.4766C436.305 21.2005 436.609 22.237 436.609 23.5859V24.1875H430.883C430.904 25.0208 431.146 25.6953 431.609 26.2109C432.078 26.7214 432.672 26.9766 433.391 26.9766C433.901 26.9766 434.333 26.8724 434.688 26.6641C435.042 26.4557 435.352 26.1797 435.617 25.8359L436.5 26.5234C435.792 27.612 434.729 28.1562 433.312 28.1562ZM433.133 20.5781C432.549 20.5781 432.06 20.7917 431.664 21.2188C431.268 21.6406 431.023 22.2344 430.93 23H435.164V22.8906C435.122 22.1562 434.924 21.5885 434.57 21.1875C434.216 20.7812 433.737 20.5781 433.133 20.5781ZM443.508 28C443.424 27.8333 443.357 27.5365 443.305 27.1094C442.633 27.8073 441.831 28.1562 440.898 28.1562C440.065 28.1562 439.38 27.9219 438.844 27.4531C438.312 26.9792 438.047 26.3802 438.047 25.6562C438.047 24.776 438.38 24.0938 439.047 23.6094C439.719 23.1198 440.661 22.875 441.875 22.875H443.281V22.2109C443.281 21.7057 443.13 21.3047 442.828 21.0078C442.526 20.7057 442.081 20.5547 441.492 20.5547C440.977 20.5547 440.544 20.6849 440.195 20.9453C439.846 21.2057 439.672 21.5208 439.672 21.8906H438.219C438.219 21.4688 438.367 21.0625 438.664 20.6719C438.966 20.276 439.372 19.9635 439.883 19.7344C440.398 19.5052 440.964 19.3906 441.578 19.3906C442.552 19.3906 443.315 19.6354 443.867 20.125C444.419 20.6094 444.706 21.2786 444.727 22.1328V26.0234C444.727 26.7995 444.826 27.4167 445.023 27.875V28H443.508ZM441.109 26.8984C441.562 26.8984 441.992 26.7812 442.398 26.5469C442.805 26.3125 443.099 26.0078 443.281 25.6328V23.8984H442.148C440.378 23.8984 439.492 24.4167 439.492 25.4531C439.492 25.9062 439.643 26.2604 439.945 26.5156C440.247 26.7708 440.635 26.8984 441.109 26.8984ZM451.914 25.7578C451.914 25.3672 451.766 25.0651 451.469 24.8516C451.177 24.6328 450.664 24.4453 449.93 24.2891C449.201 24.1328 448.62 23.9453 448.188 23.7266C447.76 23.5078 447.443 23.2474 447.234 22.9453C447.031 22.6432 446.93 22.2839 446.93 21.8672C446.93 21.1745 447.221 20.5885 447.805 20.1094C448.393 19.6302 449.143 19.3906 450.055 19.3906C451.013 19.3906 451.789 19.638 452.383 20.1328C452.982 20.6276 453.281 21.2604 453.281 22.0312H451.828C451.828 21.6354 451.659 21.2943 451.32 21.0078C450.987 20.7214 450.565 20.5781 450.055 20.5781C449.529 20.5781 449.117 20.6927 448.82 20.9219C448.523 21.151 448.375 21.4505 448.375 21.8203C448.375 22.1693 448.513 22.4323 448.789 22.6094C449.065 22.7865 449.562 22.9557 450.281 23.1172C451.005 23.2786 451.591 23.4714 452.039 23.6953C452.487 23.9193 452.818 24.1901 453.031 24.5078C453.25 24.8203 453.359 25.2031 453.359 25.6562C453.359 26.4115 453.057 27.0182 452.453 27.4766C451.849 27.9297 451.065 28.1562 450.102 28.1562C449.424 28.1562 448.826 28.0365 448.305 27.7969C447.784 27.5573 447.375 27.224 447.078 26.7969C446.786 26.3646 446.641 25.8984 446.641 25.3984H448.086C448.112 25.8828 448.305 26.2682 448.664 26.5547C449.029 26.8359 449.508 26.9766 450.102 26.9766C450.648 26.9766 451.086 26.8672 451.414 26.6484C451.747 26.4245 451.914 26.1276 451.914 25.7578ZM458.75 28.1562C457.604 28.1562 456.672 27.7812 455.953 27.0312C455.234 26.276 454.875 25.2682 454.875 24.0078V23.7422C454.875 22.9036 455.034 22.1562 455.352 21.5C455.674 20.8385 456.122 20.3229 456.695 19.9531C457.273 19.5781 457.898 19.3906 458.57 19.3906C459.669 19.3906 460.523 19.7526 461.133 20.4766C461.742 21.2005 462.047 22.237 462.047 23.5859V24.1875H456.32C456.341 25.0208 456.583 25.6953 457.047 26.2109C457.516 26.7214 458.109 26.9766 458.828 26.9766C459.339 26.9766 459.771 26.8724 460.125 26.6641C460.479 26.4557 460.789 26.1797 461.055 25.8359L461.938 26.5234C461.229 27.612 460.167 28.1562 458.75 28.1562ZM458.57 20.5781C457.987 20.5781 457.497 20.7917 457.102 21.2188C456.706 21.6406 456.461 22.2344 456.367 23H460.602V22.8906C460.56 22.1562 460.362 21.5885 460.008 21.1875C459.654 20.7812 459.174 20.5781 458.57 20.5781ZM468.648 25.7578C468.648 25.3672 468.5 25.0651 468.203 24.8516C467.911 24.6328 467.398 24.4453 466.664 24.2891C465.935 24.1328 465.354 23.9453 464.922 23.7266C464.495 23.5078 464.177 23.2474 463.969 22.9453C463.766 22.6432 463.664 22.2839 463.664 21.8672C463.664 21.1745 463.956 20.5885 464.539 20.1094C465.128 19.6302 465.878 19.3906 466.789 19.3906C467.747 19.3906 468.523 19.638 469.117 20.1328C469.716 20.6276 470.016 21.2604 470.016 22.0312H468.562C468.562 21.6354 468.393 21.2943 468.055 21.0078C467.721 20.7214 467.299 20.5781 466.789 20.5781C466.263 20.5781 465.852 20.6927 465.555 20.9219C465.258 21.151 465.109 21.4505 465.109 21.8203C465.109 22.1693 465.247 22.4323 465.523 22.6094C465.799 22.7865 466.297 22.9557 467.016 23.1172C467.74 23.2786 468.326 23.4714 468.773 23.6953C469.221 23.9193 469.552 24.1901 469.766 24.5078C469.984 24.8203 470.094 25.2031 470.094 25.6562C470.094 26.4115 469.792 27.0182 469.188 27.4766C468.583 27.9297 467.799 28.1562 466.836 28.1562C466.159 28.1562 465.56 28.0365 465.039 27.7969C464.518 27.5573 464.109 27.224 463.812 26.7969C463.521 26.3646 463.375 25.8984 463.375 25.3984H464.82C464.846 25.8828 465.039 26.2682 465.398 26.5547C465.763 26.8359 466.242 26.9766 466.836 26.9766C467.383 26.9766 467.82 26.8672 468.148 26.6484C468.482 26.4245 468.648 26.1276 468.648 25.7578Z" fill="#4285F4"/>
<path d="M614.953 22.9766H610.18V28H608.68V16.625H615.727V17.8594H610.18V21.75H614.953V22.9766ZM618.867 28H617.422V19.5469H618.867V28ZM617.305 17.3047C617.305 17.0703 617.375 16.8724 617.516 16.7109C617.661 16.5495 617.875 16.4688 618.156 16.4688C618.438 16.4688 618.651 16.5495 618.797 16.7109C618.943 16.8724 619.016 17.0703 619.016 17.3047C619.016 17.5391 618.943 17.7344 618.797 17.8906C618.651 18.0469 618.438 18.125 618.156 18.125C617.875 18.125 617.661 18.0469 617.516 17.8906C617.375 17.7344 617.305 17.5391 617.305 17.3047ZM622.555 19.5469L622.602 20.6094C623.247 19.7969 624.091 19.3906 625.133 19.3906C626.919 19.3906 627.82 20.3984 627.836 22.4141V28H626.391V22.4062C626.385 21.7969 626.245 21.3464 625.969 21.0547C625.698 20.763 625.273 20.6172 624.695 20.6172C624.227 20.6172 623.815 20.7422 623.461 20.9922C623.107 21.2422 622.831 21.5703 622.633 21.9766V28H621.188V19.5469H622.555ZM635.234 28C635.151 27.8333 635.083 27.5365 635.031 27.1094C634.359 27.8073 633.557 28.1562 632.625 28.1562C631.792 28.1562 631.107 27.9219 630.57 27.4531C630.039 26.9792 629.773 26.3802 629.773 25.6562C629.773 24.776 630.107 24.0938 630.773 23.6094C631.445 23.1198 632.388 22.875 633.602 22.875H635.008V22.2109C635.008 21.7057 634.857 21.3047 634.555 21.0078C634.253 20.7057 633.807 20.5547 633.219 20.5547C632.703 20.5547 632.271 20.6849 631.922 20.9453C631.573 21.2057 631.398 21.5208 631.398 21.8906H629.945C629.945 21.4688 630.094 21.0625 630.391 20.6719C630.693 20.276 631.099 19.9635 631.609 19.7344C632.125 19.5052 632.69 19.3906 633.305 19.3906C634.279 19.3906 635.042 19.6354 635.594 20.125C636.146 20.6094 636.432 21.2786 636.453 22.1328V26.0234C636.453 26.7995 636.552 27.4167 636.75 27.875V28H635.234ZM632.836 26.8984C633.289 26.8984 633.719 26.7812 634.125 26.5469C634.531 26.3125 634.826 26.0078 635.008 25.6328V23.8984H633.875C632.104 23.8984 631.219 24.4167 631.219 25.4531C631.219 25.9062 631.37 26.2604 631.672 26.5156C631.974 26.7708 632.362 26.8984 632.836 26.8984ZM640.289 28H638.844V16H640.289V28ZM650.977 23.3984H648.305V28H646.797V16.625H650.562C651.844 16.625 652.828 16.9167 653.516 17.5C654.208 18.0833 654.555 18.9323 654.555 20.0469C654.555 20.7552 654.362 21.3724 653.977 21.8984C653.596 22.4245 653.065 22.8177 652.383 23.0781L655.055 27.9062V28H653.445L650.977 23.3984ZM648.305 22.1719H650.609C651.354 22.1719 651.945 21.9792 652.383 21.5938C652.826 21.2083 653.047 20.6927 653.047 20.0469C653.047 19.3438 652.836 18.8047 652.414 18.4297C651.997 18.0547 651.393 17.8646 650.602 17.8594H648.305V22.1719ZM659.945 28.1562C658.799 28.1562 657.867 27.7812 657.148 27.0312C656.43 26.276 656.07 25.2682 656.07 24.0078V23.7422C656.07 22.9036 656.229 22.1562 656.547 21.5C656.87 20.8385 657.318 20.3229 657.891 19.9531C658.469 19.5781 659.094 19.3906 659.766 19.3906C660.865 19.3906 661.719 19.7526 662.328 20.4766C662.938 21.2005 663.242 22.237 663.242 23.5859V24.1875H657.516C657.536 25.0208 657.779 25.6953 658.242 26.2109C658.711 26.7214 659.305 26.9766 660.023 26.9766C660.534 26.9766 660.966 26.8724 661.32 26.6641C661.674 26.4557 661.984 26.1797 662.25 25.8359L663.133 26.5234C662.424 27.612 661.362 28.1562 659.945 28.1562ZM659.766 20.5781C659.182 20.5781 658.693 20.7917 658.297 21.2188C657.901 21.6406 657.656 22.2344 657.562 23H661.797V22.8906C661.755 22.1562 661.557 21.5885 661.203 21.1875C660.849 20.7812 660.37 20.5781 659.766 20.5781ZM666.492 28H665.047V16H666.492V28ZM672.32 28.1562C671.174 28.1562 670.242 27.7812 669.523 27.0312C668.805 26.276 668.445 25.2682 668.445 24.0078V23.7422C668.445 22.9036 668.604 22.1562 668.922 21.5C669.245 20.8385 669.693 20.3229 670.266 19.9531C670.844 19.5781 671.469 19.3906 672.141 19.3906C673.24 19.3906 674.094 19.7526 674.703 20.4766C675.312 21.2005 675.617 22.237 675.617 23.5859V24.1875H669.891C669.911 25.0208 670.154 25.6953 670.617 26.2109C671.086 26.7214 671.68 26.9766 672.398 26.9766C672.909 26.9766 673.341 26.8724 673.695 26.6641C674.049 26.4557 674.359 26.1797 674.625 25.8359L675.508 26.5234C674.799 27.612 673.737 28.1562 672.32 28.1562ZM672.141 20.5781C671.557 20.5781 671.068 20.7917 670.672 21.2188C670.276 21.6406 670.031 22.2344 669.938 23H674.172V22.8906C674.13 22.1562 673.932 21.5885 673.578 21.1875C673.224 20.7812 672.745 20.5781 672.141 20.5781ZM682.516 28C682.432 27.8333 682.365 27.5365 682.312 27.1094C681.641 27.8073 680.839 28.1562 679.906 28.1562C679.073 28.1562 678.388 27.9219 677.852 27.4531C677.32 26.9792 677.055 26.3802 677.055 25.6562C677.055 24.776 677.388 24.0938 678.055 23.6094C678.727 23.1198 679.669 22.875 680.883 22.875H682.289V22.2109C682.289 21.7057 682.138 21.3047 681.836 21.0078C681.534 20.7057 681.089 20.5547 680.5 20.5547C679.984 20.5547 679.552 20.6849 679.203 20.9453C678.854 21.2057 678.68 21.5208 678.68 21.8906H677.227C677.227 21.4688 677.375 21.0625 677.672 20.6719C677.974 20.276 678.38 19.9635 678.891 19.7344C679.406 19.5052 679.971 19.3906 680.586 19.3906C681.56 19.3906 682.323 19.6354 682.875 20.125C683.427 20.6094 683.714 21.2786 683.734 22.1328V26.0234C683.734 26.7995 683.833 27.4167 684.031 27.875V28H682.516ZM680.117 26.8984C680.57 26.8984 681 26.7812 681.406 26.5469C681.812 26.3125 682.107 26.0078 682.289 25.6328V23.8984H681.156C679.385 23.8984 678.5 24.4167 678.5 25.4531C678.5 25.9062 678.651 26.2604 678.953 26.5156C679.255 26.7708 679.643 26.8984 680.117 26.8984ZM690.922 25.7578C690.922 25.3672 690.773 25.0651 690.477 24.8516C690.185 24.6328 689.672 24.4453 688.938 24.2891C688.208 24.1328 687.628 23.9453 687.195 23.7266C686.768 23.5078 686.451 23.2474 686.242 22.9453C686.039 22.6432 685.938 22.2839 685.938 21.8672C685.938 21.1745 686.229 20.5885 686.812 20.1094C687.401 19.6302 688.151 19.3906 689.062 19.3906C690.021 19.3906 690.797 19.638 691.391 20.1328C691.99 20.6276 692.289 21.2604 692.289 22.0312H690.836C690.836 21.6354 690.667 21.2943 690.328 21.0078C689.995 20.7214 689.573 20.5781 689.062 20.5781C688.536 20.5781 688.125 20.6927 687.828 20.9219C687.531 21.151 687.383 21.4505 687.383 21.8203C687.383 22.1693 687.521 22.4323 687.797 22.6094C688.073 22.7865 688.57 22.9557 689.289 23.1172C690.013 23.2786 690.599 23.4714 691.047 23.6953C691.495 23.9193 691.826 24.1901 692.039 24.5078C692.258 24.8203 692.367 25.2031 692.367 25.6562C692.367 26.4115 692.065 27.0182 691.461 27.4766C690.857 27.9297 690.073 28.1562 689.109 28.1562C688.432 28.1562 687.833 28.0365 687.312 27.7969C686.792 27.5573 686.383 27.224 686.086 26.7969C685.794 26.3646 685.648 25.8984 685.648 25.3984H687.094C687.12 25.8828 687.312 26.2682 687.672 26.5547C688.036 26.8359 688.516 26.9766 689.109 26.9766C689.656 26.9766 690.094 26.8672 690.422 26.6484C690.755 26.4245 690.922 26.1276 690.922 25.7578ZM697.758 28.1562C696.612 28.1562 695.68 27.7812 694.961 27.0312C694.242 26.276 693.883 25.2682 693.883 24.0078V23.7422C693.883 22.9036 694.042 22.1562 694.359 21.5C694.682 20.8385 695.13 20.3229 695.703 19.9531C696.281 19.5781 696.906 19.3906 697.578 19.3906C698.677 19.3906 699.531 19.7526 700.141 20.4766C700.75 21.2005 701.055 22.237 701.055 23.5859V24.1875H695.328C695.349 25.0208 695.591 25.6953 696.055 26.2109C696.523 26.7214 697.117 26.9766 697.836 26.9766C698.346 26.9766 698.779 26.8724 699.133 26.6641C699.487 26.4557 699.797 26.1797 700.062 25.8359L700.945 26.5234C700.237 27.612 699.174 28.1562 697.758 28.1562ZM697.578 20.5781C696.995 20.5781 696.505 20.7917 696.109 21.2188C695.714 21.6406 695.469 22.2344 695.375 23H699.609V22.8906C699.568 22.1562 699.37 21.5885 699.016 21.1875C698.661 20.7812 698.182 20.5781 697.578 20.5781Z" fill="#00B975"/>
<path d="M0 47H117.873L132.496 70H14.6225L0 47Z" fill="#F9F9F9"/>
<path d="M0 93H117.873L132.496 70H14.6225L0 93Z" fill="#F9F9F9"/>
<path d="M117 47H234.873L249.496 70H131.623L117 47Z" fill="#F2F2F2"/>
<path d="M117 93H234.873L249.496 70H131.623L117 93Z" fill="#F2F2F2"/>
<path d="M235 47H352.873L367.496 70H249.623L235 47Z" fill="#E6E6E6"/>
<path d="M235 93H352.873L367.496 70H249.623L235 93Z" fill="#E6E6E6"/>
<path d="M353 47H470.873L485.496 70H367.623L353 47Z" fill="#D9D9D9"/>
<path d="M353 93H470.873L485.496 70H367.623L353 93Z" fill="#D9D9D9"/>
<path d="M470 47H587.873L602.496 70H484.623L470 47Z" fill="#073042"/>
<path d="M470 93H587.873L602.496 70H484.623L470 93Z" fill="#073042"/>
<path d="M591.096 47L704.378 47L719 70H605.719L591.096 47Z" fill="#073042"/>
<path d="M591.096 93H704.378L719 70H605.719L591.096 93Z" fill="#073042"/>
<path d="M41.9766 69.9766H37.2031V75H35.7031V63.625H42.75V64.8594H37.2031V68.75H41.9766V69.9766ZM47.6562 75.1562C46.5104 75.1562 45.5781 74.7812 44.8594 74.0312C44.1406 73.276 43.7812 72.2682 43.7812 71.0078V70.7422C43.7812 69.9036 43.9401 69.1562 44.2578 68.5C44.5807 67.8385 45.0286 67.3229 45.6016 66.9531C46.1797 66.5781 46.8047 66.3906 47.4766 66.3906C48.5755 66.3906 49.4297 66.7526 50.0391 67.4766C50.6484 68.2005 50.9531 69.237 50.9531 70.5859V71.1875H45.2266C45.2474 72.0208 45.4896 72.6953 45.9531 73.2109C46.4219 73.7214 47.0156 73.9766 47.7344 73.9766C48.2448 73.9766 48.6771 73.8724 49.0312 73.6641C49.3854 73.4557 49.6953 73.1797 49.9609 72.8359L50.8438 73.5234C50.1354 74.612 49.0729 75.1562 47.6562 75.1562ZM47.4766 67.5781C46.8932 67.5781 46.4036 67.7917 46.0078 68.2188C45.612 68.6406 45.3672 69.2344 45.2734 70H49.5078V69.8906C49.4661 69.1562 49.2682 68.5885 48.9141 68.1875C48.5599 67.7812 48.0807 67.5781 47.4766 67.5781ZM59.7891 70.8672C59.7891 72.1589 59.4922 73.1979 58.8984 73.9844C58.3047 74.7656 57.5078 75.1562 56.5078 75.1562C55.4401 75.1562 54.6146 74.7786 54.0312 74.0234L53.9609 75H52.6328V63H54.0781V67.4766C54.6615 66.7526 55.4661 66.3906 56.4922 66.3906C57.5182 66.3906 58.3229 66.7786 58.9062 67.5547C59.4948 68.3307 59.7891 69.3932 59.7891 70.7422V70.8672ZM58.3438 70.7031C58.3438 69.7188 58.1536 68.9583 57.7734 68.4219C57.3932 67.8854 56.8464 67.6172 56.1328 67.6172C55.1797 67.6172 54.4948 68.0599 54.0781 68.9453V72.6016C54.5208 73.487 55.2109 73.9297 56.1484 73.9297C56.8411 73.9297 57.3802 73.6615 57.7656 73.125C58.151 72.5885 58.3438 71.7812 58.3438 70.7031ZM65.7031 67.8438C65.4844 67.8073 65.2474 67.7891 64.9922 67.7891C64.0443 67.7891 63.401 68.1927 63.0625 69V75H61.6172V66.5469H63.0234L63.0469 67.5234C63.5208 66.7682 64.1927 66.3906 65.0625 66.3906C65.3438 66.3906 65.5573 66.4271 65.7031 66.5V67.8438ZM72.2578 74.1641C71.6953 74.8255 70.8698 75.1562 69.7812 75.1562C68.8802 75.1562 68.1927 74.8958 67.7188 74.375C67.25 73.849 67.013 73.0729 67.0078 72.0469V66.5469H68.4531V72.0078C68.4531 73.2891 68.974 73.9297 70.0156 73.9297C71.1198 73.9297 71.8542 73.5182 72.2188 72.6953V66.5469H73.6641V75H72.2891L72.2578 74.1641ZM81.0859 75C81.0026 74.8333 80.9349 74.5365 80.8828 74.1094C80.2109 74.8073 79.4089 75.1562 78.4766 75.1562C77.6432 75.1562 76.9583 74.9219 76.4219 74.4531C75.8906 73.9792 75.625 73.3802 75.625 72.6562C75.625 71.776 75.9583 71.0938 76.625 70.6094C77.2969 70.1198 78.2396 69.875 79.4531 69.875H80.8594V69.2109C80.8594 68.7057 80.7083 68.3047 80.4062 68.0078C80.1042 67.7057 79.6589 67.5547 79.0703 67.5547C78.5547 67.5547 78.1224 67.6849 77.7734 67.9453C77.4245 68.2057 77.25 68.5208 77.25 68.8906H75.7969C75.7969 68.4688 75.9453 68.0625 76.2422 67.6719C76.5443 67.276 76.9505 66.9635 77.4609 66.7344C77.9766 66.5052 78.5417 66.3906 79.1562 66.3906C80.1302 66.3906 80.8932 66.6354 81.4453 67.125C81.9974 67.6094 82.2839 68.2786 82.3047 69.1328V73.0234C82.3047 73.7995 82.4036 74.4167 82.6016 74.875V75H81.0859ZM78.6875 73.8984C79.1406 73.8984 79.5703 73.7812 79.9766 73.5469C80.3828 73.3125 80.6771 73.0078 80.8594 72.6328V70.8984H79.7266C77.9557 70.8984 77.0703 71.4167 77.0703 72.4531C77.0703 72.9062 77.2214 73.2604 77.5234 73.5156C77.8255 73.7708 78.2135 73.8984 78.6875 73.8984ZM88.6562 67.8438C88.4375 67.8073 88.2005 67.7891 87.9453 67.7891C86.9974 67.7891 86.3542 68.1927 86.0156 69V75H84.5703V66.5469H85.9766L86 67.5234C86.474 66.7682 87.1458 66.3906 88.0156 66.3906C88.2969 66.3906 88.5104 66.4271 88.6562 66.5V67.8438ZM92.8984 72.8828L94.8672 66.5469H96.4141L93.0156 76.3047C92.4896 77.7109 91.6536 78.4141 90.5078 78.4141L90.2344 78.3906L89.6953 78.2891V77.1172L90.0859 77.1484C90.5755 77.1484 90.9557 77.0495 91.2266 76.8516C91.5026 76.6536 91.7292 76.2917 91.9062 75.7656L92.2266 74.9062L89.2109 66.5469H90.7891L92.8984 72.8828Z" fill="black"/>
<path d="M163.695 63.625L167.414 72.9062L171.133 63.625H173.078V75H171.578V70.5703L171.719 65.7891L167.984 75H166.836L163.109 65.8125L163.258 70.5703V75H161.758V63.625H163.695ZM180.719 75C180.635 74.8333 180.568 74.5365 180.516 74.1094C179.844 74.8073 179.042 75.1562 178.109 75.1562C177.276 75.1562 176.591 74.9219 176.055 74.4531C175.523 73.9792 175.258 73.3802 175.258 72.6562C175.258 71.776 175.591 71.0938 176.258 70.6094C176.93 70.1198 177.872 69.875 179.086 69.875H180.492V69.2109C180.492 68.7057 180.341 68.3047 180.039 68.0078C179.737 67.7057 179.292 67.5547 178.703 67.5547C178.188 67.5547 177.755 67.6849 177.406 67.9453C177.057 68.2057 176.883 68.5208 176.883 68.8906H175.43C175.43 68.4688 175.578 68.0625 175.875 67.6719C176.177 67.276 176.583 66.9635 177.094 66.7344C177.609 66.5052 178.174 66.3906 178.789 66.3906C179.763 66.3906 180.526 66.6354 181.078 67.125C181.63 67.6094 181.917 68.2786 181.938 69.1328V73.0234C181.938 73.7995 182.036 74.4167 182.234 74.875V75H180.719ZM178.32 73.8984C178.773 73.8984 179.203 73.7812 179.609 73.5469C180.016 73.3125 180.31 73.0078 180.492 72.6328V70.8984H179.359C177.589 70.8984 176.703 71.4167 176.703 72.4531C176.703 72.9062 176.854 73.2604 177.156 73.5156C177.458 73.7708 177.846 73.8984 178.32 73.8984ZM188.289 67.8438C188.07 67.8073 187.833 67.7891 187.578 67.7891C186.63 67.7891 185.987 68.1927 185.648 69V75H184.203V66.5469H185.609L185.633 67.5234C186.107 66.7682 186.779 66.3906 187.648 66.3906C187.93 66.3906 188.143 66.4271 188.289 66.5V67.8438ZM192.859 73.9766C193.375 73.9766 193.826 73.8203 194.211 73.5078C194.596 73.1953 194.81 72.8047 194.852 72.3359H196.219C196.193 72.8203 196.026 73.2812 195.719 73.7188C195.411 74.1562 195 74.5052 194.484 74.7656C193.974 75.026 193.432 75.1562 192.859 75.1562C191.708 75.1562 190.792 74.7734 190.109 74.0078C189.432 73.237 189.094 72.1849 189.094 70.8516V70.6094C189.094 69.7865 189.245 69.0547 189.547 68.4141C189.849 67.7734 190.281 67.276 190.844 66.9219C191.411 66.5677 192.081 66.3906 192.852 66.3906C193.799 66.3906 194.586 66.6745 195.211 67.2422C195.841 67.8099 196.177 68.5469 196.219 69.4531H194.852C194.81 68.9062 194.602 68.4583 194.227 68.1094C193.857 67.7552 193.398 67.5781 192.852 67.5781C192.117 67.5781 191.547 67.8438 191.141 68.375C190.74 68.901 190.539 69.6641 190.539 70.6641V70.9375C190.539 71.9115 190.74 72.6615 191.141 73.1875C191.542 73.7135 192.115 73.9766 192.859 73.9766ZM199.289 67.5703C199.93 66.7839 200.763 66.3906 201.789 66.3906C203.576 66.3906 204.477 67.3984 204.492 69.4141V75H203.047V69.4062C203.042 68.7969 202.901 68.3464 202.625 68.0547C202.354 67.763 201.93 67.6172 201.352 67.6172C200.883 67.6172 200.471 67.7422 200.117 67.9922C199.763 68.2422 199.487 68.5703 199.289 68.9766V75H197.844V63H199.289V67.5703Z" fill="black"/>
<path d="M292.789 72.0312H288.023L286.953 75H285.406L289.75 63.625H291.062L295.414 75H293.875L292.789 72.0312ZM288.477 70.7969H292.344L290.406 65.4766L288.477 70.7969ZM303.859 70.8672C303.859 72.1536 303.565 73.1901 302.977 73.9766C302.388 74.763 301.591 75.1562 300.586 75.1562C299.56 75.1562 298.753 74.8307 298.164 74.1797V78.25H296.719V66.5469H298.039L298.109 67.4844C298.698 66.7552 299.516 66.3906 300.562 66.3906C301.578 66.3906 302.38 66.7734 302.969 67.5391C303.562 68.3047 303.859 69.3698 303.859 70.7344V70.8672ZM302.414 70.7031C302.414 69.75 302.211 68.9974 301.805 68.4453C301.398 67.8932 300.841 67.6172 300.133 67.6172C299.258 67.6172 298.602 68.0052 298.164 68.7812V72.8203C298.596 73.5911 299.258 73.9766 300.148 73.9766C300.841 73.9766 301.391 73.7031 301.797 73.1562C302.208 72.6042 302.414 71.7865 302.414 70.7031ZM309.789 67.8438C309.57 67.8073 309.333 67.7891 309.078 67.7891C308.13 67.7891 307.487 68.1927 307.148 69V75H305.703V66.5469H307.109L307.133 67.5234C307.607 66.7682 308.279 66.3906 309.148 66.3906C309.43 66.3906 309.643 66.4271 309.789 66.5V67.8438ZM312.695 75H311.25V66.5469H312.695V75ZM311.133 64.3047C311.133 64.0703 311.203 63.8724 311.344 63.7109C311.49 63.5495 311.703 63.4688 311.984 63.4688C312.266 63.4688 312.479 63.5495 312.625 63.7109C312.771 63.8724 312.844 64.0703 312.844 64.3047C312.844 64.5391 312.771 64.7344 312.625 64.8906C312.479 65.0469 312.266 65.125 311.984 65.125C311.703 65.125 311.49 65.0469 311.344 64.8906C311.203 64.7344 311.133 64.5391 311.133 64.3047ZM316.586 75H315.141V63H316.586V75Z" fill="black"/>
<path d="M407.695 63.625L411.414 72.9062L415.133 63.625H417.078V75H415.578V70.5703L415.719 65.7891L411.984 75H410.836L407.109 65.8125L407.258 70.5703V75H405.758V63.625H407.695ZM424.719 75C424.635 74.8333 424.568 74.5365 424.516 74.1094C423.844 74.8073 423.042 75.1562 422.109 75.1562C421.276 75.1562 420.591 74.9219 420.055 74.4531C419.523 73.9792 419.258 73.3802 419.258 72.6562C419.258 71.776 419.591 71.0938 420.258 70.6094C420.93 70.1198 421.872 69.875 423.086 69.875H424.492V69.2109C424.492 68.7057 424.341 68.3047 424.039 68.0078C423.737 67.7057 423.292 67.5547 422.703 67.5547C422.188 67.5547 421.755 67.6849 421.406 67.9453C421.057 68.2057 420.883 68.5208 420.883 68.8906H419.43C419.43 68.4688 419.578 68.0625 419.875 67.6719C420.177 67.276 420.583 66.9635 421.094 66.7344C421.609 66.5052 422.174 66.3906 422.789 66.3906C423.763 66.3906 424.526 66.6354 425.078 67.125C425.63 67.6094 425.917 68.2786 425.938 69.1328V73.0234C425.938 73.7995 426.036 74.4167 426.234 74.875V75H424.719ZM422.32 73.8984C422.773 73.8984 423.203 73.7812 423.609 73.5469C424.016 73.3125 424.31 73.0078 424.492 72.6328V70.8984H423.359C421.589 70.8984 420.703 71.4167 420.703 72.4531C420.703 72.9062 420.854 73.2604 421.156 73.5156C421.458 73.7708 421.846 73.8984 422.32 73.8984ZM430.844 72.8828L432.812 66.5469H434.359L430.961 76.3047C430.435 77.7109 429.599 78.4141 428.453 78.4141L428.18 78.3906L427.641 78.2891V77.1172L428.031 77.1484C428.521 77.1484 428.901 77.0495 429.172 76.8516C429.448 76.6536 429.674 76.2917 429.852 75.7656L430.172 74.9062L427.156 66.5469H428.734L430.844 72.8828Z" fill="black"/>
<path d="M525.102 63.625H526.609V71.6797C526.609 72.7682 526.281 73.6198 525.625 74.2344C524.974 74.849 524.104 75.1562 523.016 75.1562C521.885 75.1562 521.005 74.8672 520.375 74.2891C519.745 73.7109 519.43 72.901 519.43 71.8594H520.93C520.93 72.5104 521.107 73.0182 521.461 73.3828C521.82 73.7474 522.339 73.9297 523.016 73.9297C523.635 73.9297 524.135 73.7344 524.516 73.3438C524.901 72.9531 525.096 72.4062 525.102 71.7031V63.625ZM534.156 74.1641C533.594 74.8255 532.768 75.1562 531.68 75.1562C530.779 75.1562 530.091 74.8958 529.617 74.375C529.148 73.849 528.911 73.0729 528.906 72.0469V66.5469H530.352V72.0078C530.352 73.2891 530.872 73.9297 531.914 73.9297C533.018 73.9297 533.753 73.5182 534.117 72.6953V66.5469H535.562V75H534.188L534.156 74.1641ZM539.133 66.5469L539.18 67.6094C539.826 66.7969 540.669 66.3906 541.711 66.3906C543.497 66.3906 544.398 67.3984 544.414 69.4141V75H542.969V69.4062C542.964 68.7969 542.823 68.3464 542.547 68.0547C542.276 67.763 541.852 67.6172 541.273 67.6172C540.805 67.6172 540.393 67.7422 540.039 67.9922C539.685 68.2422 539.409 68.5703 539.211 68.9766V75H537.766V66.5469H539.133ZM550.102 75.1562C548.956 75.1562 548.023 74.7812 547.305 74.0312C546.586 73.276 546.227 72.2682 546.227 71.0078V70.7422C546.227 69.9036 546.385 69.1562 546.703 68.5C547.026 67.8385 547.474 67.3229 548.047 66.9531C548.625 66.5781 549.25 66.3906 549.922 66.3906C551.021 66.3906 551.875 66.7526 552.484 67.4766C553.094 68.2005 553.398 69.237 553.398 70.5859V71.1875H547.672C547.693 72.0208 547.935 72.6953 548.398 73.2109C548.867 73.7214 549.461 73.9766 550.18 73.9766C550.69 73.9766 551.122 73.8724 551.477 73.6641C551.831 73.4557 552.141 73.1797 552.406 72.8359L553.289 73.5234C552.581 74.612 551.518 75.1562 550.102 75.1562ZM549.922 67.5781C549.339 67.5781 548.849 67.7917 548.453 68.2188C548.057 68.6406 547.812 69.2344 547.719 70H551.953V69.8906C551.911 69.1562 551.714 68.5885 551.359 68.1875C551.005 67.7812 550.526 67.5781 549.922 67.5781Z" fill="white"/>
<path d="M655.016 69.6797C655.016 70.7786 654.841 71.7266 654.492 72.5234C654.143 73.3151 653.654 73.9349 653.023 74.3828L655.055 75.9766L654.031 76.9219L651.633 75.0156C651.258 75.1094 650.862 75.1562 650.445 75.1562C649.549 75.1562 648.755 74.9375 648.062 74.5C647.37 74.0573 646.831 73.4297 646.445 72.6172C646.065 71.7995 645.87 70.8542 645.859 69.7812V68.9609C645.859 67.8672 646.049 66.901 646.43 66.0625C646.81 65.224 647.346 64.5833 648.039 64.1406C648.737 63.6927 649.534 63.4688 650.43 63.4688C651.346 63.4688 652.151 63.6901 652.844 64.1328C653.542 64.5755 654.078 65.2135 654.453 66.0469C654.828 66.875 655.016 67.8438 655.016 68.9531V69.6797ZM653.516 68.9453C653.516 67.6068 653.247 66.5755 652.711 65.8516C652.18 65.1224 651.419 64.7578 650.43 64.7578C649.487 64.7578 648.742 65.1198 648.195 65.8438C647.654 66.5625 647.375 67.5625 647.359 68.8438V69.6797C647.359 70.9818 647.63 72.0078 648.172 72.7578C648.719 73.5078 649.477 73.8828 650.445 73.8828C651.414 73.8828 652.164 73.5312 652.695 72.8281C653.227 72.1198 653.5 71.1068 653.516 69.7891V68.9453ZM659.055 68.6094H660.141C660.823 68.599 661.359 68.4193 661.75 68.0703C662.141 67.7214 662.336 67.25 662.336 66.6562C662.336 65.3229 661.672 64.6562 660.344 64.6562C659.719 64.6562 659.219 64.8359 658.844 65.1953C658.474 65.5495 658.289 66.0208 658.289 66.6094H656.844C656.844 65.7083 657.172 64.9609 657.828 64.3672C658.49 63.7682 659.328 63.4688 660.344 63.4688C661.417 63.4688 662.258 63.7526 662.867 64.3203C663.477 64.888 663.781 65.6771 663.781 66.6875C663.781 67.1823 663.62 67.6615 663.297 68.125C662.979 68.5885 662.544 68.9349 661.992 69.1641C662.617 69.362 663.099 69.6901 663.438 70.1484C663.781 70.6068 663.953 71.1667 663.953 71.8281C663.953 72.849 663.62 73.6589 662.953 74.2578C662.286 74.8568 661.419 75.1562 660.352 75.1562C659.284 75.1562 658.414 74.8672 657.742 74.2891C657.076 73.7109 656.742 72.9479 656.742 72H658.195C658.195 72.599 658.391 73.0781 658.781 73.4375C659.172 73.7969 659.695 73.9766 660.352 73.9766C661.049 73.9766 661.583 73.7943 661.953 73.4297C662.323 73.0651 662.508 72.5417 662.508 71.8594C662.508 71.1979 662.305 70.6901 661.898 70.3359C661.492 69.9818 660.906 69.7995 660.141 69.7891H659.055V68.6094Z" fill="white"/>
<circle cx="66" cy="117" r="8" fill="#F86734"/>
<circle cx="183" cy="117" r="8" fill="#F86734"/>
<circle cx="300" cy="117" r="8" fill="#F86734"/>
<circle cx="417" cy="117" r="8" fill="#4285F4"/>
<circle cx="505" cy="117" r="8" fill="#4285F4"/>
<circle cx="687" cy="117" r="8" fill="#3DDC84"/>
<line x1="64" y1="117" x2="409" y2="117" stroke="#F86734" stroke-width="2"/>
<path d="M409 117H645.5" stroke="#4285F4" stroke-width="2"/>
<path d="M719.707 117.707C720.098 117.317 720.098 116.683 719.707 116.293L713.343 109.929C712.953 109.538 712.319 109.538 711.929 109.929C711.538 110.319 711.538 110.953 711.929 111.343L717.586 117L711.929 122.657C711.538 123.047 711.538 123.681 711.929 124.071C712.319 124.462 712.953 124.462 713.343 124.071L719.707 117.707ZM645.5 118L719 118V116L645.5 116V118Z" fill="#3DDC84"/>
<circle cx="615" cy="117" r="8" fill="#4285F4"/>
</svg>
